<?xml version="1.0" encoding="UTF-8" standalone="no"?><svg xmlns="http://www.w3.org/2000/svg" xmlns:xlink="http://www.w3.org/1999/xlink" contentScriptType="application/ecmascript" contentStyleType="text/css" height="614.25px" preserveAspectRatio="none" style="width:1753px;height:614px;" version="1.1" viewBox="0 0 1753 614" width="1753.29px" zoomAndPan="magnify"><defs><filter height="300%" id="fmcw5kukwvpmi" width="300%" x="-1" y="-1"><feGaussianBlur result="blurOut" stdDeviation="1.26"/><feColorMatrix in="blurOut" result="blurOut2" type="matrix" values="0 0 0 0 0 0 0 0 0 0 0 0 0 0 0 0 0 0 .4 0"/><feOffset dx="2.52" dy="2.52" in="blurOut2" result="blurOut3"/><feBlend in="SourceGraphic" in2="blurOut3" mode="normal"/></filter></defs><g><text fill="#000000" font-family="sans-serif" font-size="11.34" lengthAdjust="spacing" text-decoration="underline" textLength="186.48" x="779.31" y="11.7719">PARKING LOT OOP's Class Diagram</text><text fill="#000000" font-family="sans-serif" font-size="11.34" lengthAdjust="spacing" textLength="0" x="873.81" y="26.3677"/><!--MD5=[f24ce85ae5bcc2f2d1ceae143648a40b]
cluster DisplayBoard--><polygon fill="#FFFFFF" filter="url(#fmcw5kukwvpmi)" points="359.1,32.9716,420.84,32.9716,425.25,48.1039,476.28,48.1039,476.28,191.7316,359.1,191.7316,359.1,32.9716" style="stroke:#000000;stroke-width:0.9450000000000001;"/><line style="stroke:#000000;stroke-width:0.9450000000000001;" x1="359.1" x2="425.25" y1="48.1039" y2="48.1039"/><text fill="#000000" font-family="sans-serif" font-size="8.82" font-weight="bold" lengthAdjust="spacing" textLength="57.96" x="361.62" y="43.3876">DisplayBoard</text><!--MD5=[e5f667b5311306cc91fbdfbce3163ce7]
cluster Exceptions--><polygon fill="#FFFFFF" filter="url(#fmcw5kukwvpmi)" points="10.08,32.9716,63,32.9716,67.41,48.1039,300.51,48.1039,300.51,191.7316,10.08,191.7316,10.08,32.9716" style="stroke:#000000;stroke-width:0.9450000000000001;"/><line style="stroke:#000000;stroke-width:0.9450000000000001;" x1="10.08" x2="67.41" y1="48.1039" y2="48.1039"/><text fill="#000000" font-family="sans-serif" font-size="8.82" font-weight="bold" lengthAdjust="spacing" textLength="49.14" x="12.6" y="43.3876">Exceptions</text><!--MD5=[4ffc462f7ab70bce5b61dcc3cbbdb396]
cluster Parking--><polygon fill="#FFFFFF" filter="url(#fmcw5kukwvpmi)" points="1002.96,223.2316,1040.13,223.2316,1044.54,238.3639,1596.42,238.3639,1596.42,574.7716,1002.96,574.7716,1002.96,223.2316" style="stroke:#000000;stroke-width:0.9450000000000001;"/><line style="stroke:#000000;stroke-width:0.9450000000000001;" x1="1002.96" x2="1044.54" y1="238.3639" y2="238.3639"/><text fill="#000000" font-family="sans-serif" font-size="8.82" font-weight="bold" lengthAdjust="spacing" textLength="33.39" x="1005.48" y="233.6476">Parking</text><!--MD5=[1f3c46e78255ab53d936ff79e95d0057]
cluster Parking.Factories--><polygon fill="#FFFFFF" filter="url(#fmcw5kukwvpmi)" points="1282.05,251.5816,1327.41,251.5816,1331.82,266.7139,1534.68,266.7139,1534.68,315.2116,1282.05,315.2116,1282.05,251.5816" style="stroke:#000000;stroke-width:0.9450000000000001;"/><line style="stroke:#000000;stroke-width:0.9450000000000001;" x1="1282.05" x2="1331.82" y1="266.7139" y2="266.7139"/><text fill="#000000" font-family="sans-serif" font-size="8.82" font-weight="bold" lengthAdjust="spacing" textLength="41.58" x="1284.57" y="261.9976">Factories</text><!--MD5=[1733308d4d2d850ade19ef62d668b02e]
cluster Parking.Policies--><polygon fill="#FFFFFF" filter="url(#fmcw5kukwvpmi)" points="1290.87,426.0916,1329.3,426.0916,1333.71,441.2239,1581.3,441.2239,1581.3,559.6516,1290.87,559.6516,1290.87,426.0916" style="stroke:#000000;stroke-width:0.9450000000000001;"/><line style="stroke:#000000;stroke-width:0.9450000000000001;" x1="1290.87" x2="1333.71" y1="441.2239" y2="441.2239"/><text fill="#000000" font-family="sans-serif" font-size="8.82" font-weight="bold" lengthAdjust="spacing" textLength="34.65" x="1293.39" y="436.5076">Policies</text><!--MD5=[0ab284e3b456ee2b379a23fea95df2f3]
cluster Payment--><polygon fill="#FFFFFF" filter="url(#fmcw5kukwvpmi)" points="491.4,128.1016,532.35,128.1016,536.76,143.2339,987.84,143.2339,987.84,315.2116,491.4,315.2116,491.4,128.1016" style="stroke:#000000;stroke-width:0.9450000000000001;"/><line style="stroke:#000000;stroke-width:0.9450000000000001;" x1="491.4" x2="536.76" y1="143.2339" y2="143.2339"/><text fill="#000000" font-family="sans-serif" font-size="8.82" font-weight="bold" lengthAdjust="spacing" textLength="37.17" x="493.92" y="138.5176">Payment</text><!--MD5=[651a9cb98d76a5fd8afbbb3ec3aad80c]
cluster Users--><polygon fill="#FFFFFF" filter="url(#fmcw5kukwvpmi)" points="904.68,32.9716,934.29,32.9716,938.7,48.1039,1045.17,48.1039,1045.17,96.6016,904.68,96.6016,904.68,32.9716" style="stroke:#000000;stroke-width:0.9450000000000001;"/><line style="stroke:#000000;stroke-width:0.9450000000000001;" x1="904.68" x2="938.7" y1="48.1039" y2="48.1039"/><text fill="#000000" font-family="sans-serif" font-size="8.82" font-weight="bold" lengthAdjust="spacing" textLength="25.83" x="907.2" y="43.3876">Users</text><!--MD5=[4510d70cd61869942d8ed00fbeb4a674]
cluster Vehicles--><polygon fill="#FFFFFF" filter="url(#fmcw5kukwvpmi)" points="1656.9,128.1016,1698.48,128.1016,1702.89,143.2339,1742.58,143.2339,1742.58,315.2116,1656.9,315.2116,1656.9,128.1016" style="stroke:#000000;stroke-width:0.9450000000000001;"/><line style="stroke:#000000;stroke-width:0.9450000000000001;" x1="1656.9" x2="1702.89" y1="143.2339" y2="143.2339"/><text fill="#000000" font-family="sans-serif" font-size="8.82" font-weight="bold" lengthAdjust="spacing" textLength="37.8" x="1659.42" y="138.5176">Vehicles</text><!--MD5=[7db3c59d38ae5b37b484eb2df9368145]
cluster java.util--><polygon fill="#FFFFFF" filter="url(#fmcw5kukwvpmi)" points="917.28,426.0916,955.71,426.0916,960.12,441.2239,987.84,441.2239,987.84,489.7216,917.28,489.7216,917.28,426.0916" style="stroke:#000000;stroke-width:0.9450000000000001;"/><line style="stroke:#000000;stroke-width:0.9450000000000001;" x1="917.28" x2="960.12" y1="441.2239" y2="441.2239"/><text fill="#000000" font-family="sans-serif" font-size="8.82" font-weight="bold" lengthAdjust="spacing" textLength="34.65" x="919.8" y="436.5076">java.util</text><!--MD5=[987cbc993f9f136b2e3c7775316e21a5]
class DisplayBoard.ConsoleDisplayBoard--><rect codeLine="6" fill="#FEFECE" filter="url(#fmcw5kukwvpmi)" height="30.24" id="DisplayBoard.ConsoleDisplayBoard" style="stroke:#A80036;stroke-width:0.9450000000000001;" width="96.39" x="369.495" y="151.4116"/><ellipse cx="378.945" cy="161.4916" fill="#ADD1B2" rx="6.93" ry="6.93" style="stroke:#A80036;stroke-width:0.63;"/><path d="M380.205,159.2866 Q380.333,158.9716 380.4806,158.8141 Q380.6283,158.6566 380.7956,158.6566 Q381.0909,158.6566 381.278,158.8338 Q381.465,159.011 381.465,159.4245 L381.465,160.4088 Q381.465,160.8223 381.2878,160.9995 Q381.1106,161.1766 380.835,161.1766 Q380.5889,161.1766 380.4314,161.0684 Q380.2739,160.9601 380.205,160.6746 Q380.1755,160.4777 380.0672,160.3695 Q379.8703,160.1627 379.5159,160.0446 Q379.1616,159.9166 378.8072,159.9166 Q378.3642,159.9166 377.9902,160.0938 Q377.6259,160.271 377.3405,160.6648 Q377.055,161.0585 377.055,161.5999 L377.055,162.1807 Q377.055,162.8304 377.5866,163.2635 Q378.1181,163.6966 379.0631,163.6966 Q379.6242,163.6966 380.018,163.5687 Q380.2444,163.4998 380.5003,163.2734 Q380.6677,163.1454 380.7563,163.106 Q380.8448,163.0666 380.9531,163.0666 Q381.1598,163.0666 381.3075,163.234 Q381.465,163.3915 381.465,163.6179 Q381.465,163.8345 381.2484,164.0904 Q380.9334,164.4645 380.4314,164.6712 Q379.7719,164.9566 378.9647,164.9566 Q378.0197,164.9566 377.2617,164.5826 Q376.6514,164.2873 376.2183,163.6474 Q375.795,163.0076 375.795,162.2496 L375.795,161.5605 Q375.795,160.773 376.1691,160.084 Q376.553,159.3949 377.2125,159.0307 Q377.8819,158.6566 378.63,158.6566 Q379.0828,158.6566 379.4766,158.8141 Q379.8703,158.9716 380.205,159.2866 Z " fill="#000000"/><text fill="#000000" font-family="sans-serif" font-size="7.56" lengthAdjust="spacing" textLength="76.23" x="387.765" y="164.4743">ConsoleDisplayBoard</text><line style="stroke:#A80036;stroke-width:0.9450000000000001;" x1="370.125" x2="465.255" y1="171.5716" y2="171.5716"/><line style="stroke:#A80036;stroke-width:0.9450000000000001;" x1="370.125" x2="465.255" y1="176.6116" y2="176.6116"/><!--MD5=[78375142fc863b6615734777ad3eb874]
class DisplayBoard.IDisplayBoard--><rect codeLine="14" fill="#FEFECE" filter="url(#fmcw5kukwvpmi)" height="30.24" id="DisplayBoard.IDisplayBoard" style="stroke:#A80036;stroke-width:0.9450000000000001;" width="69.3" x="383.04" y="56.2816"/><ellipse cx="392.49" cy="66.3616" fill="#B4A7E5" rx="6.93" ry="6.93" style="stroke:#A80036;stroke-width:0.63;"/><path d="M393.12,64.4716 L393.12,68.2516 L394.38,68.2516 L394.6852,68.2516 L395.01,68.6454 L395.01,68.8816 L395.01,69.1179 L394.6852,69.5116 L394.38,69.5116 L390.6,69.5116 L390.2948,69.5116 L389.97,69.1179 L389.97,68.8816 L389.97,68.6454 L390.2948,68.2516 L390.6,68.2516 L391.86,68.2516 L391.86,64.4716 L390.6,64.4716 L390.2948,64.4716 L389.97,64.0779 L389.97,63.8416 L389.97,63.6054 L390.2948,63.2116 L390.6,63.2116 L394.38,63.2116 L394.6852,63.2116 L395.01,63.6054 L395.01,63.8416 L395.01,64.0779 L394.6852,64.4716 L394.38,64.4716 L393.12,64.4716 Z " fill="#000000"/><text fill="#000000" font-family="sans-serif" font-size="7.56" font-style="italic" lengthAdjust="spacing" textLength="49.14" x="401.31" y="69.3443">IDisplayBoard</text><line style="stroke:#A80036;stroke-width:0.9450000000000001;" x1="383.67" x2="451.71" y1="76.4416" y2="76.4416"/><line style="stroke:#A80036;stroke-width:0.9450000000000001;" x1="383.67" x2="451.71" y1="81.4816" y2="81.4816"/><!--MD5=[6f235bca817738b2c04ccc575ec8d587]
class Exceptions.InvalidParkingTicketException--><rect codeLine="22" fill="#FEFECE" filter="url(#fmcw5kukwvpmi)" height="30.24" id="Exceptions.InvalidParkingTicketException" style="stroke:#A80036;stroke-width:0.9450000000000001;" width="122.22" x="20.16" y="56.2816"/><ellipse cx="29.61" cy="66.3616" fill="#ADD1B2" rx="6.93" ry="6.93" style="stroke:#A80036;stroke-width:0.63;"/><path d="M30.87,64.1566 Q30.998,63.8416 31.1456,63.6841 Q31.2933,63.5266 31.4606,63.5266 Q31.7559,63.5266 31.943,63.7038 Q32.13,63.881 32.13,64.2945 L32.13,65.2788 Q32.13,65.6923 31.9528,65.8695 Q31.7756,66.0466 31.5,66.0466 Q31.2539,66.0466 31.0964,65.9384 Q30.9389,65.8301 30.87,65.5446 Q30.8405,65.3477 30.7322,65.2395 Q30.5353,65.0327 30.1809,64.9146 Q29.8266,64.7866 29.4722,64.7866 Q29.0292,64.7866 28.6552,64.9638 Q28.2909,65.141 28.0055,65.5348 Q27.72,65.9285 27.72,66.4699 L27.72,67.0507 Q27.72,67.7004 28.2516,68.1335 Q28.7831,68.5666 29.7281,68.5666 Q30.2892,68.5666 30.683,68.4387 Q30.9094,68.3698 31.1653,68.1434 Q31.3327,68.0154 31.4213,67.976 Q31.5098,67.9366 31.6181,67.9366 Q31.8248,67.9366 31.9725,68.104 Q32.13,68.2615 32.13,68.4879 Q32.13,68.7045 31.9134,68.9604 Q31.5984,69.3345 31.0964,69.5412 Q30.4369,69.8266 29.6297,69.8266 Q28.6847,69.8266 27.9267,69.4526 Q27.3164,69.1573 26.8833,68.5174 Q26.46,67.8776 26.46,67.1196 L26.46,66.4305 Q26.46,65.643 26.8341,64.954 Q27.218,64.2649 27.8775,63.9007 Q28.5469,63.5266 29.295,63.5266 Q29.7478,63.5266 30.1416,63.6841 Q30.5353,63.8416 30.87,64.1566 Z " fill="#000000"/><text fill="#000000" font-family="sans-serif" font-size="7.56" lengthAdjust="spacing" textLength="102.06" x="38.43" y="69.3443">InvalidParkingTicketException</text><line style="stroke:#A80036;stroke-width:0.9450000000000001;" x1="20.79" x2="141.75" y1="76.4416" y2="76.4416"/><line style="stroke:#A80036;stroke-width:0.9450000000000001;" x1="20.79" x2="141.75" y1="81.4816" y2="81.4816"/><!--MD5=[b6d7a51c1b83dee00e41f8df20b59227]
class Exceptions.InvalidPaymentTicketException--><rect codeLine="30" fill="#FEFECE" filter="url(#fmcw5kukwvpmi)" height="30.24" id="Exceptions.InvalidPaymentTicketException" style="stroke:#A80036;stroke-width:0.9450000000000001;" width="126" x="164.43" y="56.2816"/><ellipse cx="173.88" cy="66.3616" fill="#ADD1B2" rx="6.93" ry="6.93" style="stroke:#A80036;stroke-width:0.63;"/><path d="M175.14,64.1566 Q175.268,63.8416 175.4156,63.6841 Q175.5633,63.5266 175.7306,63.5266 Q176.0259,63.5266 176.213,63.7038 Q176.4,63.881 176.4,64.2945 L176.4,65.2788 Q176.4,65.6923 176.2228,65.8695 Q176.0456,66.0466 175.77,66.0466 Q175.5239,66.0466 175.3664,65.9384 Q175.2089,65.8301 175.14,65.5446 Q175.1105,65.3477 175.0022,65.2395 Q174.8053,65.0327 174.4509,64.9146 Q174.0966,64.7866 173.7422,64.7866 Q173.2992,64.7866 172.9252,64.9638 Q172.5609,65.141 172.2755,65.5348 Q171.99,65.9285 171.99,66.4699 L171.99,67.0507 Q171.99,67.7004 172.5216,68.1335 Q173.0531,68.5666 173.9981,68.5666 Q174.5592,68.5666 174.953,68.4387 Q175.1794,68.3698 175.4353,68.1434 Q175.6027,68.0154 175.6913,67.976 Q175.7798,67.9366 175.8881,67.9366 Q176.0948,67.9366 176.2425,68.104 Q176.4,68.2615 176.4,68.4879 Q176.4,68.7045 176.1834,68.9604 Q175.8684,69.3345 175.3664,69.5412 Q174.7069,69.8266 173.8997,69.8266 Q172.9547,69.8266 172.1967,69.4526 Q171.5864,69.1573 171.1533,68.5174 Q170.73,67.8776 170.73,67.1196 L170.73,66.4305 Q170.73,65.643 171.1041,64.954 Q171.488,64.2649 172.1475,63.9007 Q172.8169,63.5266 173.565,63.5266 Q174.0178,63.5266 174.4116,63.6841 Q174.8053,63.8416 175.14,64.1566 Z " fill="#000000"/><text fill="#000000" font-family="sans-serif" font-size="7.56" lengthAdjust="spacing" textLength="105.84" x="182.7" y="69.3443">InvalidPaymentTicketException</text><line style="stroke:#A80036;stroke-width:0.9450000000000001;" x1="165.06" x2="289.8" y1="76.4416" y2="76.4416"/><line style="stroke:#A80036;stroke-width:0.9450000000000001;" x1="165.06" x2="289.8" y1="81.4816" y2="81.4816"/><!--MD5=[053d20e6f5766679b18735656225efbf]
class Exceptions.ParkingLotIsFullException--><rect codeLine="38" fill="#FEFECE" filter="url(#fmcw5kukwvpmi)" height="30.24" id="Exceptions.ParkingLotIsFullException" style="stroke:#A80036;stroke-width:0.9450000000000001;" width="109.62" x="26.46" y="151.4116"/><ellipse cx="35.91" cy="161.4916" fill="#ADD1B2" rx="6.93" ry="6.93" style="stroke:#A80036;stroke-width:0.63;"/><path d="M37.17,159.2866 Q37.298,158.9716 37.4456,158.8141 Q37.5933,158.6566 37.7606,158.6566 Q38.0559,158.6566 38.243,158.8338 Q38.43,159.011 38.43,159.4245 L38.43,160.4088 Q38.43,160.8223 38.2528,160.9995 Q38.0756,161.1766 37.8,161.1766 Q37.5539,161.1766 37.3964,161.0684 Q37.2389,160.9601 37.17,160.6746 Q37.1405,160.4777 37.0322,160.3695 Q36.8353,160.1627 36.4809,160.0446 Q36.1266,159.9166 35.7722,159.9166 Q35.3292,159.9166 34.9552,160.0938 Q34.5909,160.271 34.3055,160.6648 Q34.02,161.0585 34.02,161.5999 L34.02,162.1807 Q34.02,162.8304 34.5516,163.2635 Q35.0831,163.6966 36.0281,163.6966 Q36.5892,163.6966 36.983,163.5687 Q37.2094,163.4998 37.4653,163.2734 Q37.6327,163.1454 37.7213,163.106 Q37.8098,163.0666 37.9181,163.0666 Q38.1248,163.0666 38.2725,163.234 Q38.43,163.3915 38.43,163.6179 Q38.43,163.8345 38.2134,164.0904 Q37.8984,164.4645 37.3964,164.6712 Q36.7369,164.9566 35.9297,164.9566 Q34.9847,164.9566 34.2267,164.5826 Q33.6164,164.2873 33.1833,163.6474 Q32.76,163.0076 32.76,162.2496 L32.76,161.5605 Q32.76,160.773 33.1341,160.084 Q33.518,159.3949 34.1775,159.0307 Q34.8469,158.6566 35.595,158.6566 Q36.0478,158.6566 36.4416,158.8141 Q36.8353,158.9716 37.17,159.2866 Z " fill="#000000"/><text fill="#000000" font-family="sans-serif" font-size="7.56" lengthAdjust="spacing" textLength="89.46" x="44.73" y="164.4743">ParkingLotIsFullException</text><line style="stroke:#A80036;stroke-width:0.9450000000000001;" x1="27.09" x2="135.45" y1="171.5716" y2="171.5716"/><line style="stroke:#A80036;stroke-width:0.9450000000000001;" x1="27.09" x2="135.45" y1="176.6116" y2="176.6116"/><!--MD5=[131fd9b565bb0a4ced8daf50ab2ea125]
class Parking.ArrayListParkingLevelsCollection--><rect codeLine="51" fill="#FEFECE" filter="url(#fmcw5kukwvpmi)" height="30.24" id="Parking.ArrayListParkingLevelsCollection" style="stroke:#A80036;stroke-width:0.9450000000000001;" width="133.56" x="1079.19" y="519.3316"/><ellipse cx="1088.64" cy="529.4116" fill="#ADD1B2" rx="6.93" ry="6.93" style="stroke:#A80036;stroke-width:0.63;"/><path d="M1089.9,527.2066 Q1090.028,526.8916 1090.1756,526.7341 Q1090.3233,526.5766 1090.4906,526.5766 Q1090.7859,526.5766 1090.973,526.7538 Q1091.16,526.931 1091.16,527.3445 L1091.16,528.3288 Q1091.16,528.7423 1090.9828,528.9195 Q1090.8056,529.0966 1090.53,529.0966 Q1090.2839,529.0966 1090.1264,528.9884 Q1089.9689,528.8801 1089.9,528.5946 Q1089.8705,528.3977 1089.7622,528.2895 Q1089.5653,528.0827 1089.2109,527.9646 Q1088.8566,527.8366 1088.5022,527.8366 Q1088.0592,527.8366 1087.6852,528.0138 Q1087.3209,528.191 1087.0355,528.5848 Q1086.75,528.9785 1086.75,529.5199 L1086.75,530.1007 Q1086.75,530.7504 1087.2816,531.1835 Q1087.8131,531.6166 1088.7581,531.6166 Q1089.3192,531.6166 1089.713,531.4887 Q1089.9394,531.4198 1090.1953,531.1934 Q1090.3627,531.0654 1090.4513,531.026 Q1090.5398,530.9866 1090.6481,530.9866 Q1090.8548,530.9866 1091.0025,531.154 Q1091.16,531.3115 1091.16,531.5379 Q1091.16,531.7545 1090.9434,532.0104 Q1090.6284,532.3845 1090.1264,532.5912 Q1089.4669,532.8766 1088.6597,532.8766 Q1087.7147,532.8766 1086.9567,532.5026 Q1086.3464,532.2073 1085.9133,531.5674 Q1085.49,530.9276 1085.49,530.1696 L1085.49,529.4805 Q1085.49,528.693 1085.8641,528.004 Q1086.248,527.3149 1086.9075,526.9507 Q1087.5769,526.5766 1088.325,526.5766 Q1088.7778,526.5766 1089.1716,526.7341 Q1089.5653,526.8916 1089.9,527.2066 Z " fill="#000000"/><text fill="#000000" font-family="sans-serif" font-size="7.56" lengthAdjust="spacing" textLength="113.4" x="1097.46" y="532.3943">ArrayListParkingLevelsCollection</text><line style="stroke:#A80036;stroke-width:0.9450000000000001;" x1="1079.82" x2="1212.12" y1="539.4916" y2="539.4916"/><line style="stroke:#A80036;stroke-width:0.9450000000000001;" x1="1079.82" x2="1212.12" y1="544.5316" y2="544.5316"/><!--MD5=[e4d0883f785e1a2424c339a082896600]
class Parking.CParkingLevel--><rect codeLine="59" fill="#FEFECE" filter="url(#fmcw5kukwvpmi)" height="30.24" id="Parking.CParkingLevel" style="stroke:#A80036;stroke-width:0.9450000000000001;" width="70.56" x="1114.47" y="355.5316"/><ellipse cx="1123.92" cy="365.6116" fill="#ADD1B2" rx="6.93" ry="6.93" style="stroke:#A80036;stroke-width:0.63;"/><path d="M1125.18,363.4066 Q1125.308,363.0916 1125.4556,362.9341 Q1125.6033,362.7766 1125.7706,362.7766 Q1126.0659,362.7766 1126.253,362.9538 Q1126.44,363.131 1126.44,363.5445 L1126.44,364.5288 Q1126.44,364.9423 1126.2628,365.1195 Q1126.0856,365.2966 1125.81,365.2966 Q1125.5639,365.2966 1125.4064,365.1884 Q1125.2489,365.0801 1125.18,364.7946 Q1125.1505,364.5977 1125.0422,364.4895 Q1124.8453,364.2827 1124.4909,364.1646 Q1124.1366,364.0366 1123.7822,364.0366 Q1123.3392,364.0366 1122.9652,364.2138 Q1122.6009,364.391 1122.3155,364.7848 Q1122.03,365.1785 1122.03,365.7199 L1122.03,366.3007 Q1122.03,366.9504 1122.5616,367.3835 Q1123.0931,367.8166 1124.0381,367.8166 Q1124.5992,367.8166 1124.993,367.6887 Q1125.2194,367.6198 1125.4753,367.3934 Q1125.6427,367.2654 1125.7313,367.226 Q1125.8198,367.1866 1125.9281,367.1866 Q1126.1348,367.1866 1126.2825,367.354 Q1126.44,367.5115 1126.44,367.7379 Q1126.44,367.9545 1126.2234,368.2104 Q1125.9084,368.5845 1125.4064,368.7912 Q1124.7469,369.0766 1123.9397,369.0766 Q1122.9947,369.0766 1122.2367,368.7026 Q1121.6264,368.4073 1121.1933,367.7674 Q1120.77,367.1276 1120.77,366.3696 L1120.77,365.6805 Q1120.77,364.893 1121.1441,364.204 Q1121.528,363.5149 1122.1875,363.1507 Q1122.8569,362.7766 1123.605,362.7766 Q1124.0578,362.7766 1124.4516,362.9341 Q1124.8453,363.0916 1125.18,363.4066 Z " fill="#000000"/><text fill="#000000" font-family="sans-serif" font-size="7.56" lengthAdjust="spacing" textLength="50.4" x="1132.74" y="368.5943">CParkingLevel</text><line style="stroke:#A80036;stroke-width:0.9450000000000001;" x1="1115.1" x2="1184.4" y1="375.6916" y2="375.6916"/><line style="stroke:#A80036;stroke-width:0.9450000000000001;" x1="1115.1" x2="1184.4" y1="380.7316" y2="380.7316"/><!--MD5=[9e82a7233701d5cf931e0281f804a36f]
class Parking.ParkingLevel--><rect codeLine="87" fill="#FEFECE" filter="url(#fmcw5kukwvpmi)" height="30.24" id="Parking.ParkingLevel" style="stroke:#A80036;stroke-width:0.9450000000000001;" width="66.15" x="1097.775" y="274.8916"/><ellipse cx="1107.225" cy="284.9716" fill="#B4A7E5" rx="6.93" ry="6.93" style="stroke:#A80036;stroke-width:0.63;"/><path d="M1107.855,283.0816 L1107.855,286.8616 L1109.115,286.8616 L1109.4202,286.8616 L1109.745,287.2554 L1109.745,287.4916 L1109.745,287.7279 L1109.4202,288.1216 L1109.115,288.1216 L1105.335,288.1216 L1105.0298,288.1216 L1104.705,287.7279 L1104.705,287.4916 L1104.705,287.2554 L1105.0298,286.8616 L1105.335,286.8616 L1106.595,286.8616 L1106.595,283.0816 L1105.335,283.0816 L1105.0298,283.0816 L1104.705,282.6879 L1104.705,282.4516 L1104.705,282.2154 L1105.0298,281.8216 L1105.335,281.8216 L1109.115,281.8216 L1109.4202,281.8216 L1109.745,282.2154 L1109.745,282.4516 L1109.745,282.6879 L1109.4202,283.0816 L1109.115,283.0816 L1107.855,283.0816 Z " fill="#000000"/><text fill="#000000" font-family="sans-serif" font-size="7.56" font-style="italic" lengthAdjust="spacing" textLength="45.99" x="1116.045" y="287.9543">ParkingLevel</text><line style="stroke:#A80036;stroke-width:0.9450000000000001;" x1="1098.405" x2="1163.295" y1="295.0516" y2="295.0516"/><line style="stroke:#A80036;stroke-width:0.9450000000000001;" x1="1098.405" x2="1163.295" y1="300.0916" y2="300.0916"/><!--MD5=[c81f3d18f9d858323fecee9ba3f6263f]
class Parking.ParkingLevelsCollection--><rect codeLine="95" fill="#FEFECE" filter="url(#fmcw5kukwvpmi)" height="30.24" id="Parking.ParkingLevelsCollection" style="stroke:#A80036;stroke-width:0.9450000000000001;" width="104.58" x="1176.21" y="449.4016"/><ellipse cx="1185.66" cy="459.4816" fill="#B4A7E5" rx="6.93" ry="6.93" style="stroke:#A80036;stroke-width:0.63;"/><path d="M1186.29,457.5916 L1186.29,461.3716 L1187.55,461.3716 L1187.8552,461.3716 L1188.18,461.7654 L1188.18,462.0016 L1188.18,462.2379 L1187.8552,462.6316 L1187.55,462.6316 L1183.77,462.6316 L1183.4648,462.6316 L1183.14,462.2379 L1183.14,462.0016 L1183.14,461.7654 L1183.4648,461.3716 L1183.77,461.3716 L1185.03,461.3716 L1185.03,457.5916 L1183.77,457.5916 L1183.4648,457.5916 L1183.14,457.1979 L1183.14,456.9616 L1183.14,456.7254 L1183.4648,456.3316 L1183.77,456.3316 L1187.55,456.3316 L1187.8552,456.3316 L1188.18,456.7254 L1188.18,456.9616 L1188.18,457.1979 L1187.8552,457.5916 L1187.55,457.5916 L1186.29,457.5916 Z " fill="#000000"/><text fill="#000000" font-family="sans-serif" font-size="7.56" font-style="italic" lengthAdjust="spacing" textLength="84.42" x="1194.48" y="462.4643">ParkingLevelsCollection</text><line style="stroke:#A80036;stroke-width:0.9450000000000001;" x1="1176.84" x2="1280.16" y1="469.5616" y2="469.5616"/><line style="stroke:#A80036;stroke-width:0.9450000000000001;" x1="1176.84" x2="1280.16" y1="474.6016" y2="474.6016"/><!--MD5=[044050be0f29d54282406b5f8bae6e1f]
class Parking.ParkingLot--><rect codeLine="103" fill="#FEFECE" filter="url(#fmcw5kukwvpmi)" height="30.24" id="Parking.ParkingLot" style="stroke:#A80036;stroke-width:0.9450000000000001;" width="57.33" x="1317.645" y="355.5316"/><ellipse cx="1327.095" cy="365.6116" fill="#ADD1B2" rx="6.93" ry="6.93" style="stroke:#A80036;stroke-width:0.63;"/><path d="M1328.355,363.4066 Q1328.483,363.0916 1328.6306,362.9341 Q1328.7783,362.7766 1328.9456,362.7766 Q1329.2409,362.7766 1329.428,362.9538 Q1329.615,363.131 1329.615,363.5445 L1329.615,364.5288 Q1329.615,364.9423 1329.4378,365.1195 Q1329.2606,365.2966 1328.985,365.2966 Q1328.7389,365.2966 1328.5814,365.1884 Q1328.4239,365.0801 1328.355,364.7946 Q1328.3255,364.5977 1328.2172,364.4895 Q1328.0203,364.2827 1327.6659,364.1646 Q1327.3116,364.0366 1326.9572,364.0366 Q1326.5142,364.0366 1326.1402,364.2138 Q1325.7759,364.391 1325.4905,364.7848 Q1325.205,365.1785 1325.205,365.7199 L1325.205,366.3007 Q1325.205,366.9504 1325.7366,367.3835 Q1326.2681,367.8166 1327.2131,367.8166 Q1327.7742,367.8166 1328.168,367.6887 Q1328.3944,367.6198 1328.6503,367.3934 Q1328.8177,367.2654 1328.9063,367.226 Q1328.9948,367.1866 1329.1031,367.1866 Q1329.3098,367.1866 1329.4575,367.354 Q1329.615,367.5115 1329.615,367.7379 Q1329.615,367.9545 1329.3984,368.2104 Q1329.0834,368.5845 1328.5814,368.7912 Q1327.9219,369.0766 1327.1147,369.0766 Q1326.1697,369.0766 1325.4117,368.7026 Q1324.8014,368.4073 1324.3683,367.7674 Q1323.945,367.1276 1323.945,366.3696 L1323.945,365.6805 Q1323.945,364.893 1324.3191,364.204 Q1324.703,363.5149 1325.3625,363.1507 Q1326.0319,362.7766 1326.78,362.7766 Q1327.2328,362.7766 1327.6266,362.9341 Q1328.0203,363.0916 1328.355,363.4066 Z " fill="#000000"/><text fill="#000000" font-family="sans-serif" font-size="7.56" lengthAdjust="spacing" textLength="37.17" x="1335.915" y="368.5943">ParkingLot</text><line style="stroke:#A80036;stroke-width:0.9450000000000001;" x1="1318.275" x2="1374.345" y1="375.6916" y2="375.6916"/><line style="stroke:#A80036;stroke-width:0.9450000000000001;" x1="1318.275" x2="1374.345" y1="380.7316" y2="380.7316"/><!--MD5=[7a684da3ffd34919191097fe22912098]
class Parking.ParkingLotFacade--><rect codeLine="111" fill="#FEFECE" filter="url(#fmcw5kukwvpmi)" height="30.24" id="Parking.ParkingLotFacade" style="stroke:#A80036;stroke-width:0.9450000000000001;" width="83.79" x="1185.975" y="274.8916"/><ellipse cx="1195.425" cy="284.9716" fill="#B4A7E5" rx="6.93" ry="6.93" style="stroke:#A80036;stroke-width:0.63;"/><path d="M1196.055,283.0816 L1196.055,286.8616 L1197.315,286.8616 L1197.6202,286.8616 L1197.945,287.2554 L1197.945,287.4916 L1197.945,287.7279 L1197.6202,288.1216 L1197.315,288.1216 L1193.535,288.1216 L1193.2298,288.1216 L1192.905,287.7279 L1192.905,287.4916 L1192.905,287.2554 L1193.2298,286.8616 L1193.535,286.8616 L1194.795,286.8616 L1194.795,283.0816 L1193.535,283.0816 L1193.2298,283.0816 L1192.905,282.6879 L1192.905,282.4516 L1192.905,282.2154 L1193.2298,281.8216 L1193.535,281.8216 L1197.315,281.8216 L1197.6202,281.8216 L1197.945,282.2154 L1197.945,282.4516 L1197.945,282.6879 L1197.6202,283.0816 L1197.315,283.0816 L1196.055,283.0816 Z " fill="#000000"/><text fill="#000000" font-family="sans-serif" font-size="7.56" font-style="italic" lengthAdjust="spacing" textLength="63.63" x="1204.245" y="287.9543">ParkingLotFacade</text><line style="stroke:#A80036;stroke-width:0.9450000000000001;" x1="1186.605" x2="1269.135" y1="295.0516" y2="295.0516"/><line style="stroke:#A80036;stroke-width:0.9450000000000001;" x1="1186.605" x2="1269.135" y1="300.0916" y2="300.0916"/><!--MD5=[a6fdeed45fdca72d96865352f68788c9]
class Parking.ParkingSpot--><rect codeLine="119" fill="#FEFECE" filter="url(#fmcw5kukwvpmi)" height="30.24" id="Parking.ParkingSpot" style="stroke:#A80036;stroke-width:0.9450000000000001;" width="62.37" x="1013.355" y="274.8916"/><ellipse cx="1022.805" cy="284.9716" fill="#ADD1B2" rx="6.93" ry="6.93" style="stroke:#A80036;stroke-width:0.63;"/><path d="M1024.065,282.7666 Q1024.193,282.4516 1024.3406,282.2941 Q1024.4883,282.1366 1024.6556,282.1366 Q1024.9509,282.1366 1025.138,282.3138 Q1025.325,282.491 1025.325,282.9045 L1025.325,283.8888 Q1025.325,284.3023 1025.1478,284.4795 Q1024.9706,284.6566 1024.695,284.6566 Q1024.4489,284.6566 1024.2914,284.5484 Q1024.1339,284.4401 1024.065,284.1546 Q1024.0355,283.9577 1023.9272,283.8495 Q1023.7303,283.6427 1023.3759,283.5246 Q1023.0216,283.3966 1022.6672,283.3966 Q1022.2242,283.3966 1021.8502,283.5738 Q1021.4859,283.751 1021.2005,284.1448 Q1020.915,284.5385 1020.915,285.0799 L1020.915,285.6607 Q1020.915,286.3104 1021.4466,286.7435 Q1021.9781,287.1766 1022.9231,287.1766 Q1023.4842,287.1766 1023.878,287.0487 Q1024.1044,286.9798 1024.3603,286.7534 Q1024.5277,286.6254 1024.6163,286.586 Q1024.7048,286.5466 1024.8131,286.5466 Q1025.0198,286.5466 1025.1675,286.714 Q1025.325,286.8715 1025.325,287.0979 Q1025.325,287.3145 1025.1084,287.5704 Q1024.7934,287.9445 1024.2914,288.1512 Q1023.6319,288.4366 1022.8247,288.4366 Q1021.8797,288.4366 1021.1217,288.0626 Q1020.5114,287.7673 1020.0783,287.1274 Q1019.655,286.4876 1019.655,285.7296 L1019.655,285.0405 Q1019.655,284.253 1020.0291,283.564 Q1020.413,282.8749 1021.0725,282.5107 Q1021.7419,282.1366 1022.49,282.1366 Q1022.9428,282.1366 1023.3366,282.2941 Q1023.7303,282.4516 1024.065,282.7666 Z " fill="#000000"/><text fill="#000000" font-family="sans-serif" font-size="7.56" lengthAdjust="spacing" textLength="42.21" x="1031.625" y="287.9543">ParkingSpot</text><line style="stroke:#A80036;stroke-width:0.9450000000000001;" x1="1013.985" x2="1075.095" y1="295.0516" y2="295.0516"/><line style="stroke:#A80036;stroke-width:0.9450000000000001;" x1="1013.985" x2="1075.095" y1="300.0916" y2="300.0916"/><!--MD5=[63efcc2461b990904c9abdd720e78baa]
class Parking.ParkingSpotType--><rect codeLine="127" fill="#FEFECE" filter="url(#fmcw5kukwvpmi)" height="30.24" id="Parking.ParkingSpotType" style="stroke:#A80036;stroke-width:0.9450000000000001;" width="78.75" x="1013.355" y="355.5316"/><ellipse cx="1022.805" cy="365.6116" fill="#EB937F" rx="6.93" ry="6.93" style="stroke:#A80036;stroke-width:0.63;"/><path d="M1021.86,366.2416 L1021.86,367.5016 L1024.38,367.5016 L1024.38,366.8716 L1024.38,366.5665 L1024.7738,366.2416 L1025.01,366.2416 L1025.2463,366.2416 L1025.64,366.5665 L1025.64,366.8716 L1025.64,368.7616 L1020.6,368.7616 L1020.2948,368.7616 L1019.97,368.3679 L1019.97,368.1316 L1019.97,367.8954 L1020.2948,367.5016 L1020.6,367.5016 L1020.6,367.5016 L1020.6,363.7216 L1020.6,363.7216 L1020.2948,363.7216 L1019.97,363.3279 L1019.97,363.0916 L1019.97,362.8554 L1020.2948,362.4616 L1020.6,362.4616 L1025.64,362.4616 L1025.64,364.3516 L1025.64,364.6568 L1025.2463,364.9816 L1025.01,364.9816 L1024.7738,364.9816 L1024.38,364.6568 L1024.38,364.3516 L1024.38,363.7216 L1021.86,363.7216 L1021.86,364.9816 L1022.49,364.9816 L1022.49,364.6765 L1022.49,364.6765 L1022.8838,364.3516 L1023.12,364.3516 L1023.3563,364.3516 L1023.75,364.6765 L1023.75,364.9816 L1023.75,366.2416 L1023.75,366.5468 L1023.3563,366.8716 L1023.3563,366.8716 L1023.12,366.8716 L1022.8838,366.8716 L1022.49,366.5468 L1022.49,366.5468 L1022.49,366.2416 L1021.86,366.2416 Z " fill="#000000"/><text fill="#000000" font-family="sans-serif" font-size="7.56" lengthAdjust="spacing" textLength="58.59" x="1031.625" y="368.5943">ParkingSpotType</text><line style="stroke:#A80036;stroke-width:0.9450000000000001;" x1="1013.985" x2="1091.475" y1="375.6916" y2="375.6916"/><line style="stroke:#A80036;stroke-width:0.9450000000000001;" x1="1013.985" x2="1091.475" y1="380.7316" y2="380.7316"/><!--MD5=[58ec8433d8ceba8beb7f491c685677c0]
class Parking.VehicleToParkingSpotTypeMapper--><rect codeLine="175" fill="#FEFECE" filter="url(#fmcw5kukwvpmi)" height="30.24" id="Parking.VehicleToParkingSpotTypeMapper" style="stroke:#A80036;stroke-width:0.9450000000000001;" width="140.49" x="1013.355" y="449.4016"/><ellipse cx="1022.805" cy="459.4816" fill="#B4A7E5" rx="6.93" ry="6.93" style="stroke:#A80036;stroke-width:0.63;"/><path d="M1023.435,457.5916 L1023.435,461.3716 L1024.695,461.3716 L1025.0002,461.3716 L1025.325,461.7654 L1025.325,462.0016 L1025.325,462.2379 L1025.0002,462.6316 L1024.695,462.6316 L1020.915,462.6316 L1020.6098,462.6316 L1020.285,462.2379 L1020.285,462.0016 L1020.285,461.7654 L1020.6098,461.3716 L1020.915,461.3716 L1022.175,461.3716 L1022.175,457.5916 L1020.915,457.5916 L1020.6098,457.5916 L1020.285,457.1979 L1020.285,456.9616 L1020.285,456.7254 L1020.6098,456.3316 L1020.915,456.3316 L1024.695,456.3316 L1025.0002,456.3316 L1025.325,456.7254 L1025.325,456.9616 L1025.325,457.1979 L1025.0002,457.5916 L1024.695,457.5916 L1023.435,457.5916 Z " fill="#000000"/><text fill="#000000" font-family="sans-serif" font-size="7.56" font-style="italic" lengthAdjust="spacing" textLength="120.33" x="1031.625" y="462.4643">VehicleToParkingSpotTypeMapper</text><line style="stroke:#A80036;stroke-width:0.9450000000000001;" x1="1013.985" x2="1153.215" y1="469.5616" y2="469.5616"/><line style="stroke:#A80036;stroke-width:0.9450000000000001;" x1="1013.985" x2="1153.215" y1="474.6016" y2="474.6016"/><!--MD5=[a0fca9a137dd3c27689736e5cb3d98a2]
class Parking.Factories.ParkingLevelsCollectionFactory--><rect codeLine="68" fill="#FEFECE" filter="url(#fmcw5kukwvpmi)" height="30.24" id="Parking.Factories.ParkingLevelsCollectionFactory" style="stroke:#A80036;stroke-width:0.9450000000000001;" width="128.52" x="1396.08" y="274.8916"/><ellipse cx="1405.53" cy="284.9716" fill="#ADD1B2" rx="6.93" ry="6.93" style="stroke:#A80036;stroke-width:0.63;"/><path d="M1406.79,282.7666 Q1406.918,282.4516 1407.0656,282.2941 Q1407.2133,282.1366 1407.3806,282.1366 Q1407.6759,282.1366 1407.863,282.3138 Q1408.05,282.491 1408.05,282.9045 L1408.05,283.8888 Q1408.05,284.3023 1407.8728,284.4795 Q1407.6956,284.6566 1407.42,284.6566 Q1407.1739,284.6566 1407.0164,284.5484 Q1406.8589,284.4401 1406.79,284.1546 Q1406.7605,283.9577 1406.6522,283.8495 Q1406.4553,283.6427 1406.1009,283.5246 Q1405.7466,283.3966 1405.3922,283.3966 Q1404.9492,283.3966 1404.5752,283.5738 Q1404.2109,283.751 1403.9255,284.1448 Q1403.64,284.5385 1403.64,285.0799 L1403.64,285.6607 Q1403.64,286.3104 1404.1716,286.7435 Q1404.7031,287.1766 1405.6481,287.1766 Q1406.2092,287.1766 1406.603,287.0487 Q1406.8294,286.9798 1407.0853,286.7534 Q1407.2527,286.6254 1407.3413,286.586 Q1407.4298,286.5466 1407.5381,286.5466 Q1407.7448,286.5466 1407.8925,286.714 Q1408.05,286.8715 1408.05,287.0979 Q1408.05,287.3145 1407.8334,287.5704 Q1407.5184,287.9445 1407.0164,288.1512 Q1406.3569,288.4366 1405.5497,288.4366 Q1404.6047,288.4366 1403.8467,288.0626 Q1403.2364,287.7673 1402.8033,287.1274 Q1402.38,286.4876 1402.38,285.7296 L1402.38,285.0405 Q1402.38,284.253 1402.7541,283.564 Q1403.138,282.8749 1403.7975,282.5107 Q1404.4669,282.1366 1405.215,282.1366 Q1405.6678,282.1366 1406.0616,282.2941 Q1406.4553,282.4516 1406.79,282.7666 Z " fill="#000000"/><text fill="#000000" font-family="sans-serif" font-size="7.56" lengthAdjust="spacing" textLength="108.36" x="1414.35" y="287.9543">ParkingLevelsCollectionFactory</text><line style="stroke:#A80036;stroke-width:0.9450000000000001;" x1="1396.71" x2="1523.97" y1="295.0516" y2="295.0516"/><line style="stroke:#A80036;stroke-width:0.9450000000000001;" x1="1396.71" x2="1523.97" y1="300.0916" y2="300.0916"/><!--MD5=[9fc15ede1064a67a89a5e0de3df42931]
class Parking.Factories.ParkingLotFactory--><rect codeLine="78" fill="#FEFECE" filter="url(#fmcw5kukwvpmi)" height="30.24" id="Parking.Factories.ParkingLotFactory" style="stroke:#A80036;stroke-width:0.9450000000000001;" width="81.9" x="1292.13" y="274.8916"/><ellipse cx="1301.58" cy="284.9716" fill="#ADD1B2" rx="6.93" ry="6.93" style="stroke:#A80036;stroke-width:0.63;"/><path d="M1302.84,282.7666 Q1302.968,282.4516 1303.1156,282.2941 Q1303.2633,282.1366 1303.4306,282.1366 Q1303.7259,282.1366 1303.913,282.3138 Q1304.1,282.491 1304.1,282.9045 L1304.1,283.8888 Q1304.1,284.3023 1303.9228,284.4795 Q1303.7456,284.6566 1303.47,284.6566 Q1303.2239,284.6566 1303.0664,284.5484 Q1302.9089,284.4401 1302.84,284.1546 Q1302.8105,283.9577 1302.7022,283.8495 Q1302.5053,283.6427 1302.1509,283.5246 Q1301.7966,283.3966 1301.4422,283.3966 Q1300.9992,283.3966 1300.6252,283.5738 Q1300.2609,283.751 1299.9755,284.1448 Q1299.69,284.5385 1299.69,285.0799 L1299.69,285.6607 Q1299.69,286.3104 1300.2216,286.7435 Q1300.7531,287.1766 1301.6981,287.1766 Q1302.2592,287.1766 1302.653,287.0487 Q1302.8794,286.9798 1303.1353,286.7534 Q1303.3027,286.6254 1303.3913,286.586 Q1303.4798,286.5466 1303.5881,286.5466 Q1303.7948,286.5466 1303.9425,286.714 Q1304.1,286.8715 1304.1,287.0979 Q1304.1,287.3145 1303.8834,287.5704 Q1303.5684,287.9445 1303.0664,288.1512 Q1302.4069,288.4366 1301.5997,288.4366 Q1300.6547,288.4366 1299.8967,288.0626 Q1299.2864,287.7673 1298.8533,287.1274 Q1298.43,286.4876 1298.43,285.7296 L1298.43,285.0405 Q1298.43,284.253 1298.8041,283.564 Q1299.188,282.8749 1299.8475,282.5107 Q1300.5169,282.1366 1301.265,282.1366 Q1301.7178,282.1366 1302.1116,282.2941 Q1302.5053,282.4516 1302.84,282.7666 Z " fill="#000000"/><text fill="#000000" font-family="sans-serif" font-size="7.56" lengthAdjust="spacing" textLength="61.74" x="1310.4" y="287.9543">ParkingLotFactory</text><line style="stroke:#A80036;stroke-width:0.9450000000000001;" x1="1292.76" x2="1373.4" y1="295.0516" y2="295.0516"/><line style="stroke:#A80036;stroke-width:0.9450000000000001;" x1="1292.76" x2="1373.4" y1="300.0916" y2="300.0916"/><!--MD5=[0d62b60de805bae97b6f6bf1a2b7efb2]
class Parking.Policies.BasicLevelAssignmentPolicy--><rect codeLine="136" fill="#FEFECE" filter="url(#fmcw5kukwvpmi)" height="30.24" id="Parking.Policies.BasicLevelAssignmentPolicy" style="stroke:#A80036;stroke-width:0.9450000000000001;" width="119.7" x="1451.52" y="519.3316"/><ellipse cx="1460.97" cy="529.4116" fill="#ADD1B2" rx="6.93" ry="6.93" style="stroke:#A80036;stroke-width:0.63;"/><path d="M1462.23,527.2066 Q1462.358,526.8916 1462.5056,526.7341 Q1462.6533,526.5766 1462.8206,526.5766 Q1463.1159,526.5766 1463.303,526.7538 Q1463.49,526.931 1463.49,527.3445 L1463.49,528.3288 Q1463.49,528.7423 1463.3128,528.9195 Q1463.1356,529.0966 1462.86,529.0966 Q1462.6139,529.0966 1462.4564,528.9884 Q1462.2989,528.8801 1462.23,528.5946 Q1462.2005,528.3977 1462.0922,528.2895 Q1461.8953,528.0827 1461.5409,527.9646 Q1461.1866,527.8366 1460.8322,527.8366 Q1460.3892,527.8366 1460.0152,528.0138 Q1459.6509,528.191 1459.3655,528.5848 Q1459.08,528.9785 1459.08,529.5199 L1459.08,530.1007 Q1459.08,530.7504 1459.6116,531.1835 Q1460.1431,531.6166 1461.0881,531.6166 Q1461.6492,531.6166 1462.043,531.4887 Q1462.2694,531.4198 1462.5253,531.1934 Q1462.6927,531.0654 1462.7813,531.026 Q1462.8698,530.9866 1462.9781,530.9866 Q1463.1848,530.9866 1463.3325,531.154 Q1463.49,531.3115 1463.49,531.5379 Q1463.49,531.7545 1463.2734,532.0104 Q1462.9584,532.3845 1462.4564,532.5912 Q1461.7969,532.8766 1460.9897,532.8766 Q1460.0447,532.8766 1459.2867,532.5026 Q1458.6764,532.2073 1458.2433,531.5674 Q1457.82,530.9276 1457.82,530.1696 L1457.82,529.4805 Q1457.82,528.693 1458.1941,528.004 Q1458.578,527.3149 1459.2375,526.9507 Q1459.9069,526.5766 1460.655,526.5766 Q1461.1078,526.5766 1461.5016,526.7341 Q1461.8953,526.8916 1462.23,527.2066 Z " fill="#000000"/><text fill="#000000" font-family="sans-serif" font-size="7.56" lengthAdjust="spacing" textLength="99.54" x="1469.79" y="532.3943">BasicLevelAssignmentPolicy</text><line style="stroke:#A80036;stroke-width:0.9450000000000001;" x1="1452.15" x2="1570.59" y1="539.4916" y2="539.4916"/><line style="stroke:#A80036;stroke-width:0.9450000000000001;" x1="1452.15" x2="1570.59" y1="544.5316" y2="544.5316"/><!--MD5=[d376394e0d631d058aec6e705d5823d9]
class Parking.Policies.BasicParkingAssignmentPolicy--><rect codeLine="146" fill="#FEFECE" filter="url(#fmcw5kukwvpmi)" height="30.24" id="Parking.Policies.BasicParkingAssignmentPolicy" style="stroke:#A80036;stroke-width:0.9450000000000001;" width="127.89" x="1301.265" y="519.3316"/><ellipse cx="1310.715" cy="529.4116" fill="#ADD1B2" rx="6.93" ry="6.93" style="stroke:#A80036;stroke-width:0.63;"/><path d="M1311.975,527.2066 Q1312.103,526.8916 1312.2506,526.7341 Q1312.3983,526.5766 1312.5656,526.5766 Q1312.8609,526.5766 1313.048,526.7538 Q1313.235,526.931 1313.235,527.3445 L1313.235,528.3288 Q1313.235,528.7423 1313.0578,528.9195 Q1312.8806,529.0966 1312.605,529.0966 Q1312.3589,529.0966 1312.2014,528.9884 Q1312.0439,528.8801 1311.975,528.5946 Q1311.9455,528.3977 1311.8372,528.2895 Q1311.6403,528.0827 1311.2859,527.9646 Q1310.9316,527.8366 1310.5772,527.8366 Q1310.1342,527.8366 1309.7602,528.0138 Q1309.3959,528.191 1309.1105,528.5848 Q1308.825,528.9785 1308.825,529.5199 L1308.825,530.1007 Q1308.825,530.7504 1309.3566,531.1835 Q1309.8881,531.6166 1310.8331,531.6166 Q1311.3942,531.6166 1311.788,531.4887 Q1312.0144,531.4198 1312.2703,531.1934 Q1312.4377,531.0654 1312.5263,531.026 Q1312.6148,530.9866 1312.7231,530.9866 Q1312.9298,530.9866 1313.0775,531.154 Q1313.235,531.3115 1313.235,531.5379 Q1313.235,531.7545 1313.0184,532.0104 Q1312.7034,532.3845 1312.2014,532.5912 Q1311.5419,532.8766 1310.7347,532.8766 Q1309.7897,532.8766 1309.0317,532.5026 Q1308.4214,532.2073 1307.9883,531.5674 Q1307.565,530.9276 1307.565,530.1696 L1307.565,529.4805 Q1307.565,528.693 1307.9391,528.004 Q1308.323,527.3149 1308.9825,526.9507 Q1309.6519,526.5766 1310.4,526.5766 Q1310.8528,526.5766 1311.2466,526.7341 Q1311.6403,526.8916 1311.975,527.2066 Z " fill="#000000"/><text fill="#000000" font-family="sans-serif" font-size="7.56" lengthAdjust="spacing" textLength="107.73" x="1319.535" y="532.3943">BasicParkingAssignmentPolicy</text><line style="stroke:#A80036;stroke-width:0.9450000000000001;" x1="1301.895" x2="1428.525" y1="539.4916" y2="539.4916"/><line style="stroke:#A80036;stroke-width:0.9450000000000001;" x1="1301.895" x2="1428.525" y1="544.5316" y2="544.5316"/><!--MD5=[9cdaed22e1684eed4552083c6a0f2865]
class Parking.Policies.LevelAssignmentPolicy--><rect codeLine="156" fill="#FEFECE" filter="url(#fmcw5kukwvpmi)" height="30.24" id="Parking.Policies.LevelAssignmentPolicy" style="stroke:#A80036;stroke-width:0.9450000000000001;" width="100.8" x="1454.67" y="449.4016"/><ellipse cx="1464.12" cy="459.4816" fill="#B4A7E5" rx="6.93" ry="6.93" style="stroke:#A80036;stroke-width:0.63;"/><path d="M1464.75,457.5916 L1464.75,461.3716 L1466.01,461.3716 L1466.3152,461.3716 L1466.64,461.7654 L1466.64,462.0016 L1466.64,462.2379 L1466.3152,462.6316 L1466.01,462.6316 L1462.23,462.6316 L1461.9248,462.6316 L1461.6,462.2379 L1461.6,462.0016 L1461.6,461.7654 L1461.9248,461.3716 L1462.23,461.3716 L1463.49,461.3716 L1463.49,457.5916 L1462.23,457.5916 L1461.9248,457.5916 L1461.6,457.1979 L1461.6,456.9616 L1461.6,456.7254 L1461.9248,456.3316 L1462.23,456.3316 L1466.01,456.3316 L1466.3152,456.3316 L1466.64,456.7254 L1466.64,456.9616 L1466.64,457.1979 L1466.3152,457.5916 L1466.01,457.5916 L1464.75,457.5916 Z " fill="#000000"/><text fill="#000000" font-family="sans-serif" font-size="7.56" font-style="italic" lengthAdjust="spacing" textLength="80.64" x="1472.94" y="462.4643">LevelAssignmentPolicy</text><line style="stroke:#A80036;stroke-width:0.9450000000000001;" x1="1455.3" x2="1554.84" y1="469.5616" y2="469.5616"/><line style="stroke:#A80036;stroke-width:0.9450000000000001;" x1="1455.3" x2="1554.84" y1="474.6016" y2="474.6016"/><!--MD5=[3c7dbcf38a4a1c0a682c86eed68f95f4]
class Parking.Policies.ParkingAssignmentPolicy--><rect codeLine="166" fill="#FEFECE" filter="url(#fmcw5kukwvpmi)" height="30.24" id="Parking.Policies.ParkingAssignmentPolicy" style="stroke:#A80036;stroke-width:0.9450000000000001;" width="108.99" x="1310.715" y="449.4016"/><ellipse cx="1320.165" cy="459.4816" fill="#B4A7E5" rx="6.93" ry="6.93" style="stroke:#A80036;stroke-width:0.63;"/><path d="M1320.795,457.5916 L1320.795,461.3716 L1322.055,461.3716 L1322.3602,461.3716 L1322.685,461.7654 L1322.685,462.0016 L1322.685,462.2379 L1322.3602,462.6316 L1322.055,462.6316 L1318.275,462.6316 L1317.9698,462.6316 L1317.645,462.2379 L1317.645,462.0016 L1317.645,461.7654 L1317.9698,461.3716 L1318.275,461.3716 L1319.535,461.3716 L1319.535,457.5916 L1318.275,457.5916 L1317.9698,457.5916 L1317.645,457.1979 L1317.645,456.9616 L1317.645,456.7254 L1317.9698,456.3316 L1318.275,456.3316 L1322.055,456.3316 L1322.3602,456.3316 L1322.685,456.7254 L1322.685,456.9616 L1322.685,457.1979 L1322.3602,457.5916 L1322.055,457.5916 L1320.795,457.5916 Z " fill="#000000"/><text fill="#000000" font-family="sans-serif" font-size="7.56" font-style="italic" lengthAdjust="spacing" textLength="88.83" x="1328.985" y="462.4643">ParkingAssignmentPolicy</text><line style="stroke:#A80036;stroke-width:0.9450000000000001;" x1="1311.345" x2="1419.075" y1="469.5616" y2="469.5616"/><line style="stroke:#A80036;stroke-width:0.9450000000000001;" x1="1311.345" x2="1419.075" y1="474.6016" y2="474.6016"/><!--MD5=[f348e2bdcbfb473e8b03918aefddc486]
class Payment.BasicHourlyPayment--><rect codeLine="183" fill="#FEFECE" filter="url(#fmcw5kukwvpmi)" height="30.24" id="Payment.BasicHourlyPayment" style="stroke:#A80036;stroke-width:0.9450000000000001;" width="91.98" x="704.97" y="274.8916"/><ellipse cx="714.42" cy="284.9716" fill="#ADD1B2" rx="6.93" ry="6.93" style="stroke:#A80036;stroke-width:0.63;"/><path d="M715.68,282.7666 Q715.808,282.4516 715.9556,282.2941 Q716.1033,282.1366 716.2706,282.1366 Q716.5659,282.1366 716.753,282.3138 Q716.94,282.491 716.94,282.9045 L716.94,283.8888 Q716.94,284.3023 716.7628,284.4795 Q716.5856,284.6566 716.31,284.6566 Q716.0639,284.6566 715.9064,284.5484 Q715.7489,284.4401 715.68,284.1546 Q715.6505,283.9577 715.5422,283.8495 Q715.3453,283.6427 714.9909,283.5246 Q714.6366,283.3966 714.2822,283.3966 Q713.8392,283.3966 713.4652,283.5738 Q713.1009,283.751 712.8155,284.1448 Q712.53,284.5385 712.53,285.0799 L712.53,285.6607 Q712.53,286.3104 713.0616,286.7435 Q713.5931,287.1766 714.5381,287.1766 Q715.0992,287.1766 715.493,287.0487 Q715.7194,286.9798 715.9753,286.7534 Q716.1427,286.6254 716.2313,286.586 Q716.3198,286.5466 716.4281,286.5466 Q716.6348,286.5466 716.7825,286.714 Q716.94,286.8715 716.94,287.0979 Q716.94,287.3145 716.7234,287.5704 Q716.4084,287.9445 715.9064,288.1512 Q715.2469,288.4366 714.4397,288.4366 Q713.4947,288.4366 712.7367,288.0626 Q712.1264,287.7673 711.6933,287.1274 Q711.27,286.4876 711.27,285.7296 L711.27,285.0405 Q711.27,284.253 711.6441,283.564 Q712.028,282.8749 712.6875,282.5107 Q713.3569,282.1366 714.105,282.1366 Q714.5578,282.1366 714.9516,282.2941 Q715.3453,282.4516 715.68,282.7666 Z " fill="#000000"/><text fill="#000000" font-family="sans-serif" font-size="7.56" lengthAdjust="spacing" textLength="71.82" x="723.24" y="287.9543">BasicHourlyPayment</text><line style="stroke:#A80036;stroke-width:0.9450000000000001;" x1="705.6" x2="796.32" y1="295.0516" y2="295.0516"/><line style="stroke:#A80036;stroke-width:0.9450000000000001;" x1="705.6" x2="796.32" y1="300.0916" y2="300.0916"/><!--MD5=[646d39342fff35debf687abcda340228]
class Payment.CashPayment--><rect codeLine="191" fill="#FEFECE" filter="url(#fmcw5kukwvpmi)" height="30.24" id="Payment.CashPayment" style="stroke:#A80036;stroke-width:0.9450000000000001;" width="69.3" x="611.73" y="274.8916"/><ellipse cx="621.18" cy="284.9716" fill="#ADD1B2" rx="6.93" ry="6.93" style="stroke:#A80036;stroke-width:0.63;"/><path d="M622.44,282.7666 Q622.568,282.4516 622.7156,282.2941 Q622.8633,282.1366 623.0306,282.1366 Q623.3259,282.1366 623.513,282.3138 Q623.7,282.491 623.7,282.9045 L623.7,283.8888 Q623.7,284.3023 623.5228,284.4795 Q623.3456,284.6566 623.07,284.6566 Q622.8239,284.6566 622.6664,284.5484 Q622.5089,284.4401 622.44,284.1546 Q622.4105,283.9577 622.3022,283.8495 Q622.1053,283.6427 621.7509,283.5246 Q621.3966,283.3966 621.0422,283.3966 Q620.5992,283.3966 620.2252,283.5738 Q619.8609,283.751 619.5755,284.1448 Q619.29,284.5385 619.29,285.0799 L619.29,285.6607 Q619.29,286.3104 619.8216,286.7435 Q620.3531,287.1766 621.2981,287.1766 Q621.8592,287.1766 622.253,287.0487 Q622.4794,286.9798 622.7353,286.7534 Q622.9027,286.6254 622.9913,286.586 Q623.0798,286.5466 623.1881,286.5466 Q623.3948,286.5466 623.5425,286.714 Q623.7,286.8715 623.7,287.0979 Q623.7,287.3145 623.4834,287.5704 Q623.1684,287.9445 622.6664,288.1512 Q622.0069,288.4366 621.1997,288.4366 Q620.2547,288.4366 619.4967,288.0626 Q618.8864,287.7673 618.4533,287.1274 Q618.03,286.4876 618.03,285.7296 L618.03,285.0405 Q618.03,284.253 618.4041,283.564 Q618.788,282.8749 619.4475,282.5107 Q620.1169,282.1366 620.865,282.1366 Q621.3178,282.1366 621.7116,282.2941 Q622.1053,282.4516 622.44,282.7666 Z " fill="#000000"/><text fill="#000000" font-family="sans-serif" font-size="7.56" lengthAdjust="spacing" textLength="49.14" x="630" y="287.9543">CashPayment</text><line style="stroke:#A80036;stroke-width:0.9450000000000001;" x1="612.36" x2="680.4" y1="295.0516" y2="295.0516"/><line style="stroke:#A80036;stroke-width:0.9450000000000001;" x1="612.36" x2="680.4" y1="300.0916" y2="300.0916"/><!--MD5=[6edcdb16e1d4ddb6cc69bba67651211f]
class Payment.CreditCardPayment--><rect codeLine="199" fill="#FEFECE" filter="url(#fmcw5kukwvpmi)" height="30.24" id="Payment.CreditCardPayment" style="stroke:#A80036;stroke-width:0.9450000000000001;" width="88.2" x="501.48" y="274.8916"/><ellipse cx="510.93" cy="284.9716" fill="#ADD1B2" rx="6.93" ry="6.93" style="stroke:#A80036;stroke-width:0.63;"/><path d="M512.19,282.7666 Q512.318,282.4516 512.4656,282.2941 Q512.6133,282.1366 512.7806,282.1366 Q513.0759,282.1366 513.263,282.3138 Q513.45,282.491 513.45,282.9045 L513.45,283.8888 Q513.45,284.3023 513.2728,284.4795 Q513.0956,284.6566 512.82,284.6566 Q512.5739,284.6566 512.4164,284.5484 Q512.2589,284.4401 512.19,284.1546 Q512.1605,283.9577 512.0522,283.8495 Q511.8553,283.6427 511.5009,283.5246 Q511.1466,283.3966 510.7922,283.3966 Q510.3492,283.3966 509.9752,283.5738 Q509.6109,283.751 509.3255,284.1448 Q509.04,284.5385 509.04,285.0799 L509.04,285.6607 Q509.04,286.3104 509.5716,286.7435 Q510.1031,287.1766 511.0481,287.1766 Q511.6092,287.1766 512.003,287.0487 Q512.2294,286.9798 512.4853,286.7534 Q512.6527,286.6254 512.7413,286.586 Q512.8298,286.5466 512.9381,286.5466 Q513.1448,286.5466 513.2925,286.714 Q513.45,286.8715 513.45,287.0979 Q513.45,287.3145 513.2334,287.5704 Q512.9184,287.9445 512.4164,288.1512 Q511.7569,288.4366 510.9497,288.4366 Q510.0047,288.4366 509.2467,288.0626 Q508.6364,287.7673 508.2033,287.1274 Q507.78,286.4876 507.78,285.7296 L507.78,285.0405 Q507.78,284.253 508.1541,283.564 Q508.538,282.8749 509.1975,282.5107 Q509.8669,282.1366 510.615,282.1366 Q511.0678,282.1366 511.4616,282.2941 Q511.8553,282.4516 512.19,282.7666 Z " fill="#000000"/><text fill="#000000" font-family="sans-serif" font-size="7.56" lengthAdjust="spacing" textLength="68.04" x="519.75" y="287.9543">CreditCardPayment</text><line style="stroke:#A80036;stroke-width:0.9450000000000001;" x1="502.11" x2="589.05" y1="295.0516" y2="295.0516"/><line style="stroke:#A80036;stroke-width:0.9450000000000001;" x1="502.11" x2="589.05" y1="300.0916" y2="300.0916"/><!--MD5=[0eb70242ec6de077ea5e50ed7b4e67dc]
class Payment.ParkingTicket--><rect codeLine="207" fill="#FEFECE" filter="url(#fmcw5kukwvpmi)" height="30.24" id="Payment.ParkingTicket" style="stroke:#A80036;stroke-width:0.9450000000000001;" width="66.78" x="818.37" y="151.4116"/><ellipse cx="827.82" cy="161.4916" fill="#ADD1B2" rx="6.93" ry="6.93" style="stroke:#A80036;stroke-width:0.63;"/><path d="M829.08,159.2866 Q829.208,158.9716 829.3556,158.8141 Q829.5033,158.6566 829.6706,158.6566 Q829.9659,158.6566 830.153,158.8338 Q830.34,159.011 830.34,159.4245 L830.34,160.4088 Q830.34,160.8223 830.1628,160.9995 Q829.9856,161.1766 829.71,161.1766 Q829.4639,161.1766 829.3064,161.0684 Q829.1489,160.9601 829.08,160.6746 Q829.0505,160.4777 828.9422,160.3695 Q828.7453,160.1627 828.3909,160.0446 Q828.0366,159.9166 827.6822,159.9166 Q827.2392,159.9166 826.8652,160.0938 Q826.5009,160.271 826.2155,160.6648 Q825.93,161.0585 825.93,161.5999 L825.93,162.1807 Q825.93,162.8304 826.4616,163.2635 Q826.9931,163.6966 827.9381,163.6966 Q828.4992,163.6966 828.893,163.5687 Q829.1194,163.4998 829.3753,163.2734 Q829.5427,163.1454 829.6313,163.106 Q829.7198,163.0666 829.8281,163.0666 Q830.0348,163.0666 830.1825,163.234 Q830.34,163.3915 830.34,163.6179 Q830.34,163.8345 830.1234,164.0904 Q829.8084,164.4645 829.3064,164.6712 Q828.6469,164.9566 827.8397,164.9566 Q826.8947,164.9566 826.1367,164.5826 Q825.5264,164.2873 825.0933,163.6474 Q824.67,163.0076 824.67,162.2496 L824.67,161.5605 Q824.67,160.773 825.0441,160.084 Q825.428,159.3949 826.0875,159.0307 Q826.7569,158.6566 827.505,158.6566 Q827.9578,158.6566 828.3516,158.8141 Q828.7453,158.9716 829.08,159.2866 Z " fill="#000000"/><text fill="#000000" font-family="sans-serif" font-size="7.56" lengthAdjust="spacing" textLength="46.62" x="836.64" y="164.4743">ParkingTicket</text><line style="stroke:#A80036;stroke-width:0.9450000000000001;" x1="819" x2="884.52" y1="171.5716" y2="171.5716"/><line style="stroke:#A80036;stroke-width:0.9450000000000001;" x1="819" x2="884.52" y1="176.6116" y2="176.6116"/><!--MD5=[533201b6765305ef2559f3a29ae51ed9]
class Payment.PaymentCalculation--><rect codeLine="215" fill="#FEFECE" filter="url(#fmcw5kukwvpmi)" height="30.24" id="Payment.PaymentCalculation" style="stroke:#A80036;stroke-width:0.9450000000000001;" width="90.09" x="705.915" y="151.4116"/><ellipse cx="715.365" cy="161.4916" fill="#B4A7E5" rx="6.93" ry="6.93" style="stroke:#A80036;stroke-width:0.63;"/><path d="M715.995,159.6016 L715.995,163.3816 L717.255,163.3816 L717.5602,163.3816 L717.885,163.7754 L717.885,164.0116 L717.885,164.2479 L717.5602,164.6416 L717.255,164.6416 L713.475,164.6416 L713.1698,164.6416 L712.845,164.2479 L712.845,164.0116 L712.845,163.7754 L713.1698,163.3816 L713.475,163.3816 L714.735,163.3816 L714.735,159.6016 L713.475,159.6016 L713.1698,159.6016 L712.845,159.2079 L712.845,158.9716 L712.845,158.7354 L713.1698,158.3416 L713.475,158.3416 L717.255,158.3416 L717.5602,158.3416 L717.885,158.7354 L717.885,158.9716 L717.885,159.2079 L717.5602,159.6016 L717.255,159.6016 L715.995,159.6016 Z " fill="#000000"/><text fill="#000000" font-family="sans-serif" font-size="7.56" font-style="italic" lengthAdjust="spacing" textLength="69.93" x="724.185" y="164.4743">PaymentCalculation</text><line style="stroke:#A80036;stroke-width:0.9450000000000001;" x1="706.545" x2="795.375" y1="171.5716" y2="171.5716"/><line style="stroke:#A80036;stroke-width:0.9450000000000001;" x1="706.545" x2="795.375" y1="176.6116" y2="176.6116"/><!--MD5=[9d3ac48341fdc342eb90717f02341b5c]
class Payment.PaymentException--><rect codeLine="223" fill="#FEFECE" filter="url(#fmcw5kukwvpmi)" height="30.24" id="Payment.PaymentException" style="stroke:#A80036;stroke-width:0.9450000000000001;" width="83.79" x="600.075" y="151.4116"/><ellipse cx="609.525" cy="161.4916" fill="#ADD1B2" rx="6.93" ry="6.93" style="stroke:#A80036;stroke-width:0.63;"/><path d="M610.785,159.2866 Q610.913,158.9716 611.0606,158.8141 Q611.2083,158.6566 611.3756,158.6566 Q611.6709,158.6566 611.858,158.8338 Q612.045,159.011 612.045,159.4245 L612.045,160.4088 Q612.045,160.8223 611.8678,160.9995 Q611.6906,161.1766 611.415,161.1766 Q611.1689,161.1766 611.0114,161.0684 Q610.8539,160.9601 610.785,160.6746 Q610.7555,160.4777 610.6472,160.3695 Q610.4503,160.1627 610.0959,160.0446 Q609.7416,159.9166 609.3872,159.9166 Q608.9442,159.9166 608.5702,160.0938 Q608.2059,160.271 607.9205,160.6648 Q607.635,161.0585 607.635,161.5999 L607.635,162.1807 Q607.635,162.8304 608.1666,163.2635 Q608.6981,163.6966 609.6431,163.6966 Q610.2042,163.6966 610.598,163.5687 Q610.8244,163.4998 611.0803,163.2734 Q611.2477,163.1454 611.3363,163.106 Q611.4248,163.0666 611.5331,163.0666 Q611.7398,163.0666 611.8875,163.234 Q612.045,163.3915 612.045,163.6179 Q612.045,163.8345 611.8284,164.0904 Q611.5134,164.4645 611.0114,164.6712 Q610.3519,164.9566 609.5447,164.9566 Q608.5997,164.9566 607.8417,164.5826 Q607.2314,164.2873 606.7983,163.6474 Q606.375,163.0076 606.375,162.2496 L606.375,161.5605 Q606.375,160.773 606.7491,160.084 Q607.133,159.3949 607.7925,159.0307 Q608.4619,158.6566 609.21,158.6566 Q609.6628,158.6566 610.0566,158.8141 Q610.4503,158.9716 610.785,159.2866 Z " fill="#000000"/><text fill="#000000" font-family="sans-serif" font-size="7.56" lengthAdjust="spacing" textLength="63.63" x="618.345" y="164.4743">PaymentException</text><line style="stroke:#A80036;stroke-width:0.9450000000000001;" x1="600.705" x2="683.235" y1="171.5716" y2="171.5716"/><line style="stroke:#A80036;stroke-width:0.9450000000000001;" x1="600.705" x2="683.235" y1="176.6116" y2="176.6116"/><!--MD5=[8a1dcbfa00949f69ce41f2a3509eb972]
class Payment.PaymentMethod--><rect codeLine="231" fill="#FEFECE" filter="url(#fmcw5kukwvpmi)" height="30.24" id="Payment.PaymentMethod" style="stroke:#A80036;stroke-width:0.9450000000000001;" width="76.23" x="501.795" y="151.4116"/><ellipse cx="511.245" cy="161.4916" fill="#B4A7E5" rx="6.93" ry="6.93" style="stroke:#A80036;stroke-width:0.63;"/><path d="M511.875,159.6016 L511.875,163.3816 L513.135,163.3816 L513.4402,163.3816 L513.765,163.7754 L513.765,164.0116 L513.765,164.2479 L513.4402,164.6416 L513.135,164.6416 L509.355,164.6416 L509.0498,164.6416 L508.725,164.2479 L508.725,164.0116 L508.725,163.7754 L509.0498,163.3816 L509.355,163.3816 L510.615,163.3816 L510.615,159.6016 L509.355,159.6016 L509.0498,159.6016 L508.725,159.2079 L508.725,158.9716 L508.725,158.7354 L509.0498,158.3416 L509.355,158.3416 L513.135,158.3416 L513.4402,158.3416 L513.765,158.7354 L513.765,158.9716 L513.765,159.2079 L513.4402,159.6016 L513.135,159.6016 L511.875,159.6016 Z " fill="#000000"/><text fill="#000000" font-family="sans-serif" font-size="7.56" font-style="italic" lengthAdjust="spacing" textLength="56.07" x="520.065" y="164.4743">PaymentMethod</text><line style="stroke:#A80036;stroke-width:0.9450000000000001;" x1="502.425" x2="577.395" y1="171.5716" y2="171.5716"/><line style="stroke:#A80036;stroke-width:0.9450000000000001;" x1="502.425" x2="577.395" y1="176.6116" y2="176.6116"/><!--MD5=[67d2c36dc1671a2a9edfccf85cc8a8cb]
class Payment.PaymentTicket--><rect codeLine="239" fill="#FEFECE" filter="url(#fmcw5kukwvpmi)" height="30.24" id="Payment.PaymentTicket" style="stroke:#A80036;stroke-width:0.9450000000000001;" width="70.56" x="907.2" y="151.4116"/><ellipse cx="916.65" cy="161.4916" fill="#ADD1B2" rx="6.93" ry="6.93" style="stroke:#A80036;stroke-width:0.63;"/><path d="M917.91,159.2866 Q918.038,158.9716 918.1856,158.8141 Q918.3333,158.6566 918.5006,158.6566 Q918.7959,158.6566 918.983,158.8338 Q919.17,159.011 919.17,159.4245 L919.17,160.4088 Q919.17,160.8223 918.9928,160.9995 Q918.8156,161.1766 918.54,161.1766 Q918.2939,161.1766 918.1364,161.0684 Q917.9789,160.9601 917.91,160.6746 Q917.8805,160.4777 917.7722,160.3695 Q917.5753,160.1627 917.2209,160.0446 Q916.8666,159.9166 916.5122,159.9166 Q916.0692,159.9166 915.6952,160.0938 Q915.3309,160.271 915.0455,160.6648 Q914.76,161.0585 914.76,161.5999 L914.76,162.1807 Q914.76,162.8304 915.2916,163.2635 Q915.8231,163.6966 916.7681,163.6966 Q917.3292,163.6966 917.723,163.5687 Q917.9494,163.4998 918.2053,163.2734 Q918.3727,163.1454 918.4613,163.106 Q918.5498,163.0666 918.6581,163.0666 Q918.8648,163.0666 919.0125,163.234 Q919.17,163.3915 919.17,163.6179 Q919.17,163.8345 918.9534,164.0904 Q918.6384,164.4645 918.1364,164.6712 Q917.4769,164.9566 916.6697,164.9566 Q915.7247,164.9566 914.9667,164.5826 Q914.3564,164.2873 913.9233,163.6474 Q913.5,163.0076 913.5,162.2496 L913.5,161.5605 Q913.5,160.773 913.8741,160.084 Q914.258,159.3949 914.9175,159.0307 Q915.5869,158.6566 916.335,158.6566 Q916.7878,158.6566 917.1816,158.8141 Q917.5753,158.9716 917.91,159.2866 Z " fill="#000000"/><text fill="#000000" font-family="sans-serif" font-size="7.56" lengthAdjust="spacing" textLength="50.4" x="925.47" y="164.4743">PaymentTicket</text><line style="stroke:#A80036;stroke-width:0.9450000000000001;" x1="907.83" x2="977.13" y1="171.5716" y2="171.5716"/><line style="stroke:#A80036;stroke-width:0.9450000000000001;" x1="907.83" x2="977.13" y1="176.6116" y2="176.6116"/><!--MD5=[684093deba542c1356ebb5d655e1257f]
class Users.Admin--><rect codeLine="247" fill="#FEFECE" filter="url(#fmcw5kukwvpmi)" height="30.24" id="Users.Admin" style="stroke:#A80036;stroke-width:0.9450000000000001;" width="42.21" x="992.565" y="56.2816"/><ellipse cx="1002.015" cy="66.3616" fill="#ADD1B2" rx="6.93" ry="6.93" style="stroke:#A80036;stroke-width:0.63;"/><path d="M1003.275,64.1566 Q1003.403,63.8416 1003.5506,63.6841 Q1003.6983,63.5266 1003.8656,63.5266 Q1004.1609,63.5266 1004.348,63.7038 Q1004.535,63.881 1004.535,64.2945 L1004.535,65.2788 Q1004.535,65.6923 1004.3578,65.8695 Q1004.1806,66.0466 1003.905,66.0466 Q1003.6589,66.0466 1003.5014,65.9384 Q1003.3439,65.8301 1003.275,65.5446 Q1003.2455,65.3477 1003.1372,65.2395 Q1002.9403,65.0327 1002.5859,64.9146 Q1002.2316,64.7866 1001.8772,64.7866 Q1001.4342,64.7866 1001.0602,64.9638 Q1000.6959,65.141 1000.4105,65.5348 Q1000.125,65.9285 1000.125,66.4699 L1000.125,67.0507 Q1000.125,67.7004 1000.6566,68.1335 Q1001.1881,68.5666 1002.1331,68.5666 Q1002.6942,68.5666 1003.088,68.4387 Q1003.3144,68.3698 1003.5703,68.1434 Q1003.7377,68.0154 1003.8263,67.976 Q1003.9148,67.9366 1004.0231,67.9366 Q1004.2298,67.9366 1004.3775,68.104 Q1004.535,68.2615 1004.535,68.4879 Q1004.535,68.7045 1004.3184,68.9604 Q1004.0034,69.3345 1003.5014,69.5412 Q1002.8419,69.8266 1002.0347,69.8266 Q1001.0897,69.8266 1000.3317,69.4526 Q999.7214,69.1573 999.2883,68.5174 Q998.865,67.8776 998.865,67.1196 L998.865,66.4305 Q998.865,65.643 999.2391,64.954 Q999.623,64.2649 1000.2825,63.9007 Q1000.9519,63.5266 1001.7,63.5266 Q1002.1528,63.5266 1002.5466,63.6841 Q1002.9403,63.8416 1003.275,64.1566 Z " fill="#000000"/><text fill="#000000" font-family="sans-serif" font-size="7.56" lengthAdjust="spacing" textLength="22.05" x="1010.835" y="69.3443">Admin</text><line style="stroke:#A80036;stroke-width:0.9450000000000001;" x1="993.195" x2="1034.145" y1="76.4416" y2="76.4416"/><line style="stroke:#A80036;stroke-width:0.9450000000000001;" x1="993.195" x2="1034.145" y1="81.4816" y2="81.4816"/><!--MD5=[9b71d778954ce04856cac3fe29cf77e4]
class Users.CarOwner--><rect codeLine="255" fill="#FEFECE" filter="url(#fmcw5kukwvpmi)" height="30.24" id="Users.CarOwner" style="stroke:#A80036;stroke-width:0.9450000000000001;" width="55.44" x="914.76" y="56.2816"/><ellipse cx="924.21" cy="66.3616" fill="#ADD1B2" rx="6.93" ry="6.93" style="stroke:#A80036;stroke-width:0.63;"/><path d="M925.47,64.1566 Q925.598,63.8416 925.7456,63.6841 Q925.8933,63.5266 926.0606,63.5266 Q926.3559,63.5266 926.543,63.7038 Q926.73,63.881 926.73,64.2945 L926.73,65.2788 Q926.73,65.6923 926.5528,65.8695 Q926.3756,66.0466 926.1,66.0466 Q925.8539,66.0466 925.6964,65.9384 Q925.5389,65.8301 925.47,65.5446 Q925.4405,65.3477 925.3322,65.2395 Q925.1353,65.0327 924.7809,64.9146 Q924.4266,64.7866 924.0722,64.7866 Q923.6292,64.7866 923.2552,64.9638 Q922.8909,65.141 922.6055,65.5348 Q922.32,65.9285 922.32,66.4699 L922.32,67.0507 Q922.32,67.7004 922.8516,68.1335 Q923.3831,68.5666 924.3281,68.5666 Q924.8892,68.5666 925.283,68.4387 Q925.5094,68.3698 925.7653,68.1434 Q925.9327,68.0154 926.0213,67.976 Q926.1098,67.9366 926.2181,67.9366 Q926.4248,67.9366 926.5725,68.104 Q926.73,68.2615 926.73,68.4879 Q926.73,68.7045 926.5134,68.9604 Q926.1984,69.3345 925.6964,69.5412 Q925.0369,69.8266 924.2297,69.8266 Q923.2847,69.8266 922.5267,69.4526 Q921.9164,69.1573 921.4833,68.5174 Q921.06,67.8776 921.06,67.1196 L921.06,66.4305 Q921.06,65.643 921.4341,64.954 Q921.818,64.2649 922.4775,63.9007 Q923.1469,63.5266 923.895,63.5266 Q924.3478,63.5266 924.7416,63.6841 Q925.1353,63.8416 925.47,64.1566 Z " fill="#000000"/><text fill="#000000" font-family="sans-serif" font-size="7.56" lengthAdjust="spacing" textLength="35.28" x="933.03" y="69.3443">CarOwner</text><line style="stroke:#A80036;stroke-width:0.9450000000000001;" x1="915.39" x2="969.57" y1="76.4416" y2="76.4416"/><line style="stroke:#A80036;stroke-width:0.9450000000000001;" x1="915.39" x2="969.57" y1="81.4816" y2="81.4816"/><!--MD5=[b8e7398e0d79182935fd670aaf755382]
class Vehicles.Vehicle--><rect codeLine="263" fill="#FEFECE" filter="url(#fmcw5kukwvpmi)" height="30.24" id="Vehicles.Vehicle" style="stroke:#A80036;stroke-width:0.9450000000000001;" width="45.36" x="1666.98" y="151.4116"/><ellipse cx="1676.43" cy="161.4916" fill="#ADD1B2" rx="6.93" ry="6.93" style="stroke:#A80036;stroke-width:0.63;"/><path d="M1677.69,159.2866 Q1677.818,158.9716 1677.9656,158.8141 Q1678.1133,158.6566 1678.2806,158.6566 Q1678.5759,158.6566 1678.763,158.8338 Q1678.95,159.011 1678.95,159.4245 L1678.95,160.4088 Q1678.95,160.8223 1678.7728,160.9995 Q1678.5956,161.1766 1678.32,161.1766 Q1678.0739,161.1766 1677.9164,161.0684 Q1677.7589,160.9601 1677.69,160.6746 Q1677.6605,160.4777 1677.5522,160.3695 Q1677.3553,160.1627 1677.0009,160.0446 Q1676.6466,159.9166 1676.2922,159.9166 Q1675.8492,159.9166 1675.4752,160.0938 Q1675.1109,160.271 1674.8255,160.6648 Q1674.54,161.0585 1674.54,161.5999 L1674.54,162.1807 Q1674.54,162.8304 1675.0716,163.2635 Q1675.6031,163.6966 1676.5481,163.6966 Q1677.1092,163.6966 1677.503,163.5687 Q1677.7294,163.4998 1677.9853,163.2734 Q1678.1527,163.1454 1678.2413,163.106 Q1678.3298,163.0666 1678.4381,163.0666 Q1678.6448,163.0666 1678.7925,163.234 Q1678.95,163.3915 1678.95,163.6179 Q1678.95,163.8345 1678.7334,164.0904 Q1678.4184,164.4645 1677.9164,164.6712 Q1677.2569,164.9566 1676.4497,164.9566 Q1675.5047,164.9566 1674.7467,164.5826 Q1674.1364,164.2873 1673.7033,163.6474 Q1673.28,163.0076 1673.28,162.2496 L1673.28,161.5605 Q1673.28,160.773 1673.6541,160.084 Q1674.038,159.3949 1674.6975,159.0307 Q1675.3669,158.6566 1676.115,158.6566 Q1676.5678,158.6566 1676.9616,158.8141 Q1677.3553,158.9716 1677.69,159.2866 Z " fill="#000000"/><text fill="#000000" font-family="sans-serif" font-size="7.56" lengthAdjust="spacing" textLength="25.2" x="1685.25" y="164.4743">Vehicle</text><line style="stroke:#A80036;stroke-width:0.9450000000000001;" x1="1667.61" x2="1711.71" y1="171.5716" y2="171.5716"/><line style="stroke:#A80036;stroke-width:0.9450000000000001;" x1="1667.61" x2="1711.71" y1="176.6116" y2="176.6116"/><!--MD5=[e389d2bb293dc2a04fd766044c8dc234]
class Vehicles.VehicleType--><rect codeLine="271" fill="#FEFECE" filter="url(#fmcw5kukwvpmi)" height="30.24" id="Vehicles.VehicleType" style="stroke:#A80036;stroke-width:0.9450000000000001;" width="61.74" x="1666.98" y="274.8916"/><ellipse cx="1676.43" cy="284.9716" fill="#EB937F" rx="6.93" ry="6.93" style="stroke:#A80036;stroke-width:0.63;"/><path d="M1675.485,285.6016 L1675.485,286.8616 L1678.005,286.8616 L1678.005,286.2316 L1678.005,285.9265 L1678.3988,285.6016 L1678.635,285.6016 L1678.8713,285.6016 L1679.265,285.9265 L1679.265,286.2316 L1679.265,288.1216 L1674.225,288.1216 L1673.9198,288.1216 L1673.595,287.7279 L1673.595,287.4916 L1673.595,287.2554 L1673.9198,286.8616 L1674.225,286.8616 L1674.225,286.8616 L1674.225,283.0816 L1674.225,283.0816 L1673.9198,283.0816 L1673.595,282.6879 L1673.595,282.4516 L1673.595,282.2154 L1673.9198,281.8216 L1674.225,281.8216 L1679.265,281.8216 L1679.265,283.7116 L1679.265,284.0168 L1678.8713,284.3416 L1678.635,284.3416 L1678.3988,284.3416 L1678.005,284.0168 L1678.005,283.7116 L1678.005,283.0816 L1675.485,283.0816 L1675.485,284.3416 L1676.115,284.3416 L1676.115,284.0365 L1676.115,284.0365 L1676.5088,283.7116 L1676.745,283.7116 L1676.9813,283.7116 L1677.375,284.0365 L1677.375,284.3416 L1677.375,285.6016 L1677.375,285.9068 L1676.9813,286.2316 L1676.9813,286.2316 L1676.745,286.2316 L1676.5088,286.2316 L1676.115,285.9068 L1676.115,285.9068 L1676.115,285.6016 L1675.485,285.6016 Z " fill="#000000"/><text fill="#000000" font-family="sans-serif" font-size="7.56" lengthAdjust="spacing" textLength="41.58" x="1685.25" y="287.9543">VehicleType</text><line style="stroke:#A80036;stroke-width:0.9450000000000001;" x1="1667.61" x2="1728.09" y1="295.0516" y2="295.0516"/><line style="stroke:#A80036;stroke-width:0.9450000000000001;" x1="1667.61" x2="1728.09" y1="300.0916" y2="300.0916"/><!--MD5=[8479184e23c2bec09445fccfd361f5d2]
class java.util.ArrayList--><rect fill="#FEFECE" filter="url(#fmcw5kukwvpmi)" height="30.24" id="java.util.ArrayList" style="stroke:#A80036;stroke-width:0.9450000000000001;" width="49.77" x="927.675" y="449.4016"/><ellipse cx="937.125" cy="459.4816" fill="#ADD1B2" rx="6.93" ry="6.93" style="stroke:#A80036;stroke-width:0.63;"/><path d="M938.385,457.2766 Q938.513,456.9616 938.6606,456.8041 Q938.8083,456.6466 938.9756,456.6466 Q939.2709,456.6466 939.458,456.8238 Q939.645,457.001 939.645,457.4145 L939.645,458.3988 Q939.645,458.8123 939.4678,458.9895 Q939.2906,459.1666 939.015,459.1666 Q938.7689,459.1666 938.6114,459.0584 Q938.4539,458.9501 938.385,458.6646 Q938.3555,458.4677 938.2472,458.3595 Q938.0503,458.1527 937.6959,458.0346 Q937.3416,457.9066 936.9872,457.9066 Q936.5442,457.9066 936.1702,458.0838 Q935.8059,458.261 935.5205,458.6548 Q935.235,459.0485 935.235,459.5899 L935.235,460.1707 Q935.235,460.8204 935.7666,461.2535 Q936.2981,461.6866 937.2431,461.6866 Q937.8042,461.6866 938.198,461.5587 Q938.4244,461.4898 938.6803,461.2634 Q938.8477,461.1354 938.9363,461.096 Q939.0248,461.0566 939.1331,461.0566 Q939.3398,461.0566 939.4875,461.224 Q939.645,461.3815 939.645,461.6079 Q939.645,461.8245 939.4284,462.0804 Q939.1134,462.4545 938.6114,462.6612 Q937.9519,462.9466 937.1447,462.9466 Q936.1997,462.9466 935.4417,462.5726 Q934.8314,462.2773 934.3983,461.6374 Q933.975,460.9976 933.975,460.2396 L933.975,459.5505 Q933.975,458.763 934.3491,458.074 Q934.733,457.3849 935.3925,457.0207 Q936.0619,456.6466 936.81,456.6466 Q937.2628,456.6466 937.6566,456.8041 Q938.0503,456.9616 938.385,457.2766 Z " fill="#000000"/><text fill="#000000" font-family="sans-serif" font-size="7.56" lengthAdjust="spacing" textLength="29.61" x="945.945" y="462.4643">ArrayList</text><line style="stroke:#A80036;stroke-width:0.9450000000000001;" x1="928.305" x2="976.815" y1="469.5616" y2="469.5616"/><line style="stroke:#A80036;stroke-width:0.9450000000000001;" x1="928.305" x2="976.815" y1="474.6016" y2="474.6016"/><!--MD5=[84718776d214be480e4c259efcb737fc]
class Main--><rect codeLine="45" fill="#FEFECE" filter="url(#fmcw5kukwvpmi)" height="30.24" id="Main" style="stroke:#A80036;stroke-width:0.9450000000000001;" width="36.54" x="312.48" y="56.2816"/><ellipse cx="321.93" cy="66.3616" fill="#ADD1B2" rx="6.93" ry="6.93" style="stroke:#A80036;stroke-width:0.63;"/><path d="M323.19,64.1566 Q323.318,63.8416 323.4656,63.6841 Q323.6133,63.5266 323.7806,63.5266 Q324.0759,63.5266 324.263,63.7038 Q324.45,63.881 324.45,64.2945 L324.45,65.2788 Q324.45,65.6923 324.2728,65.8695 Q324.0956,66.0466 323.82,66.0466 Q323.5739,66.0466 323.4164,65.9384 Q323.2589,65.8301 323.19,65.5446 Q323.1605,65.3477 323.0522,65.2395 Q322.8553,65.0327 322.5009,64.9146 Q322.1466,64.7866 321.7922,64.7866 Q321.3492,64.7866 320.9752,64.9638 Q320.6109,65.141 320.3255,65.5348 Q320.04,65.9285 320.04,66.4699 L320.04,67.0507 Q320.04,67.7004 320.5716,68.1335 Q321.1031,68.5666 322.0481,68.5666 Q322.6092,68.5666 323.003,68.4387 Q323.2294,68.3698 323.4853,68.1434 Q323.6527,68.0154 323.7413,67.976 Q323.8298,67.9366 323.9381,67.9366 Q324.1448,67.9366 324.2925,68.104 Q324.45,68.2615 324.45,68.4879 Q324.45,68.7045 324.2334,68.9604 Q323.9184,69.3345 323.4164,69.5412 Q322.7569,69.8266 321.9497,69.8266 Q321.0047,69.8266 320.2467,69.4526 Q319.6364,69.1573 319.2033,68.5174 Q318.78,67.8776 318.78,67.1196 L318.78,66.4305 Q318.78,65.643 319.1541,64.954 Q319.538,64.2649 320.1975,63.9007 Q320.8669,63.5266 321.615,63.5266 Q322.0678,63.5266 322.4616,63.6841 Q322.8553,63.8416 323.19,64.1566 Z " fill="#000000"/><text fill="#000000" font-family="sans-serif" font-size="7.56" lengthAdjust="spacing" textLength="16.38" x="330.75" y="69.3443">Main</text><line style="stroke:#A80036;stroke-width:0.9450000000000001;" x1="313.11" x2="348.39" y1="76.4416" y2="76.4416"/><line style="stroke:#A80036;stroke-width:0.9450000000000001;" x1="313.11" x2="348.39" y1="81.4816" y2="81.4816"/><!--MD5=[d011ad8bf16d5be46d2c7e7970f66c50]
reverse link DisplayBoard.IDisplayBoard to DisplayBoard.ConsoleDisplayBoard--><path codeLine="277" d="M417.69,99.4618 C417.69,116.4277 417.69,137.5264 417.69,151.336 " fill="none" id="DisplayBoard.IDisplayBoard-backto-DisplayBoard.ConsoleDisplayBoard" style="stroke:#A80036;stroke-width:0.63;stroke-dasharray:7.0,7.0;"/><polygon fill="none" points="413.28,99.298,417.69,86.698,422.1,99.298,413.28,99.298" style="stroke:#A80036;stroke-width:0.63;"/><!--MD5=[f817d0b1742587b20428b9ec3f0876df]
reverse link Parking.ParkingLevelsCollection to Parking.ArrayListParkingLevelsCollection--><path codeLine="278" d="M1201.1265,487.9261 C1188.7092,498.2644 1174.383,510.1777 1163.4462,519.2812 " fill="none" id="Parking.ParkingLevelsCollection-backto-Parking.ArrayListParkingLevelsCollection" style="stroke:#A80036;stroke-width:0.63;stroke-dasharray:7.0,7.0;"/><polygon fill="none" points="1198.4931,484.3855,1210.9986,479.7172,1204.1316,491.1643,1198.4931,484.3855" style="stroke:#A80036;stroke-width:0.63;"/><!--MD5=[3446c35f2ac21679dc79476d15d677f6]
reverse link java.util.ArrayList to Parking.ArrayListParkingLevelsCollection--><path codeLine="279" d="M985.3767,486.0991 C991.1097,489.268 997.1073,492.2983 1002.96,494.7616 C1027.089,504.9361 1054.6326,513.1891 1079.0577,519.445 " fill="none" id="java.util.ArrayList-backto-Parking.ArrayListParkingLevelsCollection" style="stroke:#A80036;stroke-width:0.63;"/><polygon fill="none" points="983.1402,489.898,974.4777,479.7361,987.5817,482.275,983.1402,489.898" style="stroke:#A80036;stroke-width:0.63;"/><!--MD5=[e1e6745e9547d01475da2a1869ab9299]
reverse link Parking.ParkingLevel to Parking.CParkingLevel--><path codeLine="280" d="M1137.276,317.6182 C1140.2748,330.2182 1143.7272,344.7334 1146.2409,355.2859 " fill="none" id="Parking.ParkingLevel-backto-Parking.CParkingLevel" style="stroke:#A80036;stroke-width:0.63;stroke-dasharray:7.0,7.0;"/><polygon fill="none" points="1132.9479,318.4813,1134.315,305.2009,1141.5222,316.4401,1132.9479,318.4813" style="stroke:#A80036;stroke-width:0.63;"/><!--MD5=[2aba83bff6c4e7579ed335e2cf0f9db6]
reverse link Parking.CParkingLevel to Parking.Policies.ParkingAssignmentPolicy--><path codeLine="281" d="M1163.9439,392.4559 C1171.1826,401.4019 1180.8153,410.9149 1191.96,416.0116 C1215.5346,426.7909 1284.1164,412.282 1308.51,421.0516 C1324.8774,426.9358 1340.4195,439.3342 1351.0728,449.2882 " fill="none" id="Parking.CParkingLevel-backto-Parking.Policies.ParkingAssignmentPolicy" style="stroke:#A80036;stroke-width:0.63;"/><polygon fill="#FFFFFF" points="1158.8913,385.8031,1159.1682,390.3377,1163.4605,391.8261,1163.1835,387.2916,1158.8913,385.8031" style="stroke:#A80036;stroke-width:0.63;"/><text fill="#000000" font-family="sans-serif" font-size="8.19" lengthAdjust="spacing" textLength="92.61" x="1192.59" y="413.8036">parkingAssignmentPolicy</text><!--MD5=[a195e856de85e528985248999b53e0ad]
reverse link Parking.CParkingLevel to Parking.VehicleToParkingSpotTypeMapper--><path codeLine="282" d="M1106.4123,385.2046 C1080.0027,393.7852 1051.1298,403.3927 1050.21,404.6716 C1039.8717,419.0419 1053.1143,436.9024 1065.8466,449.2315 " fill="none" id="Parking.CParkingLevel-backto-Parking.VehicleToParkingSpotTypeMapper" style="stroke:#A80036;stroke-width:0.63;"/><polygon fill="#FFFFFF" points="1114.3125,382.6405,1109.9393,381.4102,1107.1216,384.9739,1111.4948,386.2042,1114.3125,382.6405" style="stroke:#A80036;stroke-width:0.63;"/><text fill="#000000" font-family="sans-serif" font-size="8.19" lengthAdjust="spacing" textLength="51.66" x="1050.84" y="413.8036">possibleSpots</text><!--MD5=[859307bd7e9e8fe10e76775a2d04c09e]
reverse link Parking.ParkingLotFacade to Parking.ParkingLot--><path codeLine="283" d="M1260.3024,312.3766 C1280.7207,326.0665 1306.5318,343.36 1324.5246,355.4182 " fill="none" id="Parking.ParkingLotFacade-backto-Parking.ParkingLot" style="stroke:#A80036;stroke-width:0.63;stroke-dasharray:7.0,7.0;"/><polygon fill="none" points="1257.606,315.8794,1249.5924,305.2009,1262.5137,308.5525,1257.606,315.8794" style="stroke:#A80036;stroke-width:0.63;"/><!--MD5=[ad4987208be410670d335870272406b0]
reverse link Parking.ParkingLot to Parking.ParkingLevelsCollection--><path codeLine="284" d="M1309.2534,374.3497 C1250.1405,379.6165 1139.9472,391.1392 1128.33,404.6716 C1105.3539,431.4403 1143.8406,413.0191 1164.87,421.0516 C1182.1635,427.654 1199.4381,439.7185 1211.6097,449.3638 " fill="none" id="Parking.ParkingLot-backto-Parking.ParkingLevelsCollection" style="stroke:#A80036;stroke-width:0.63;"/><polygon fill="#FFFFFF" points="1317.582,373.6189,1313.595,371.4412,1310.0513,374.2839,1314.0383,376.4617,1317.582,373.6189" style="stroke:#A80036;stroke-width:0.63;"/><text fill="#000000" font-family="sans-serif" font-size="8.19" lengthAdjust="spacing" textLength="32.76" x="1128.96" y="413.8036">fullLevels</text><!--MD5=[ad4987208be410670d335870272406b0]
reverse link Parking.ParkingLot to Parking.ParkingLevelsCollection--><path codeLine="286" d="M1321.0848,391.114 C1298.871,408.5713 1267.0371,433.5949 1247.0787,449.2882 " fill="none" id="Parking.ParkingLot-backto-Parking.ParkingLevelsCollection-1" style="stroke:#A80036;stroke-width:0.63;"/><polygon fill="#FFFFFF" points="1327.6431,385.9543,1323.114,386.309,1321.6994,390.6262,1326.2285,390.2715,1327.6431,385.9543" style="stroke:#A80036;stroke-width:0.63;"/><text fill="#000000" font-family="sans-serif" font-size="8.19" lengthAdjust="spacing" textLength="49.14" x="1301.58" y="413.8036">nonFullLevels</text><!--MD5=[e659ba3de24520f55a7a30a16dc8c2a9]
reverse link Parking.ParkingLot to Parking.Policies.LevelAssignmentPolicy--><path codeLine="285" d="M1383.5682,376.0507 C1407.1995,380.4922 1437.5151,388.909 1460.34,404.6716 C1476.9846,416.1691 1490.0382,435.8377 1497.6423,449.3323 " fill="none" id="Parking.ParkingLot-backto-Parking.Policies.LevelAssignmentPolicy" style="stroke:#A80036;stroke-width:0.63;"/><polygon fill="#FFFFFF" points="1375.1892,374.5891,1378.4775,377.7237,1382.6357,375.8939,1379.3474,372.7594,1375.1892,374.5891" style="stroke:#A80036;stroke-width:0.63;"/><text fill="#000000" font-family="sans-serif" font-size="8.19" lengthAdjust="spacing" textLength="81.9" x="1472.94" y="413.8036">levelAssignmentPolicy</text><!--MD5=[da4ff71f3769f8eb1e7d2dd6dae2ec95]
reverse link Parking.ParkingLot to Parking.Policies.ParkingAssignmentPolicy--><path codeLine="287" d="M1356.1128,393.508 C1357.4421,397.1809 1358.6517,400.9924 1359.54,404.6716 C1363.1436,419.6341 1364.4729,437.2426 1364.958,449.3449 " fill="none" id="Parking.ParkingLot-backto-Parking.Policies.ParkingAssignmentPolicy" style="stroke:#A80036;stroke-width:0.63;"/><polygon fill="#FFFFFF" points="1353.0888,385.7842,1352.1221,390.2232,1355.8477,392.8228,1356.8145,388.3839,1353.0888,385.7842" style="stroke:#A80036;stroke-width:0.63;"/><text fill="#000000" font-family="sans-serif" font-size="8.19" lengthAdjust="spacing" textLength="92.61" x="1362.06" y="413.8036">parkingAssignmentPolicy</text><!--MD5=[401f5227d472fa7df4682196f40bb82e]
reverse link Parking.ParkingLot to Payment.PaymentCalculation--><path codeLine="288" d="M1383.2343,365.5864 C1432.683,358.8013 1516.3407,344.0656 1534.68,320.2516 C1562.3559,284.3164 1566.2619,250.75 1534.68,218.1916 C1513.9089,196.7779 1027.7442,202.6621 997.92,201.8116 C976.7835,201.2068 828.1287,202.0825 807.66,196.7716 C795.6207,193.6468 783.2601,187.5925 773.1675,181.765 " fill="none" id="Parking.ParkingLot-backto-Payment.PaymentCalculation" style="stroke:#A80036;stroke-width:0.63;"/><polygon fill="#FFFFFF" points="1375.0128,366.6826,1379.0921,368.6821,1382.5068,365.6857,1378.4275,363.6862,1375.0128,366.6826" style="stroke:#A80036;stroke-width:0.63;"/><text fill="#000000" font-family="sans-serif" font-size="8.19" lengthAdjust="spacing" textLength="71.82" x="1557.36" y="293.4736">paymentCalculation</text><!--MD5=[ad2316af9707cc4cba37f38988189050]
reverse link Parking.ParkingSpot to Parking.ParkingSpotType--><path codeLine="289" d="M1046.8962,313.498 C1048.2885,326.9485 1050.0021,343.5616 1051.2117,355.2859 " fill="none" id="Parking.ParkingSpot-backto-Parking.ParkingSpotType" style="stroke:#A80036;stroke-width:0.63;"/><polygon fill="#FFFFFF" points="1046.0394,305.2009,1043.9234,309.2211,1046.8204,312.7205,1048.9364,308.7004,1046.0394,305.2009" style="stroke:#A80036;stroke-width:0.63;"/><text fill="#000000" font-family="sans-serif" font-size="8.19" lengthAdjust="spacing" textLength="61.11" x="1049.58" y="334.4236">parkingSpotType</text><!--MD5=[d383914c525929406ae5b79ab417b423]
reverse link Parking.Policies.LevelAssignmentPolicy to Parking.Policies.BasicLevelAssignmentPolicy--><path codeLine="290" d="M1507.5648,492.3487 C1508.409,501.5467 1509.3162,511.4566 1510.0344,519.2812 " fill="none" id="Parking.Policies.LevelAssignmentPolicy-backto-Parking.Policies.BasicLevelAssignmentPolicy" style="stroke:#A80036;stroke-width:0.63;stroke-dasharray:7.0,7.0;"/><polygon fill="none" points="1503.1674,492.6637,1506.4056,479.7172,1511.9496,491.8573,1503.1674,492.6637" style="stroke:#A80036;stroke-width:0.63;"/><!--MD5=[257803e2ce89f3c4e170b6d72865a1e1]
reverse link Parking.Policies.ParkingAssignmentPolicy to Parking.Policies.BasicParkingAssignmentPolicy--><path codeLine="291" d="M1365.21,492.3487 C1365.21,501.5467 1365.21,511.4566 1365.21,519.2812 " fill="none" id="Parking.Policies.ParkingAssignmentPolicy-backto-Parking.Policies.BasicParkingAssignmentPolicy" style="stroke:#A80036;stroke-width:0.63;stroke-dasharray:7.0,7.0;"/><polygon fill="none" points="1360.8,492.3172,1365.21,479.7172,1369.62,492.3172,1360.8,492.3172" style="stroke:#A80036;stroke-width:0.63;"/><!--MD5=[ecb0f61bc258a4cac3a91cc2629b2670]
reverse link Payment.PaymentCalculation to Payment.BasicHourlyPayment--><path codeLine="292" d="M750.96,194.3146 C750.96,219.1177 750.96,254.8702 750.96,274.7089 " fill="none" id="Payment.PaymentCalculation-backto-Payment.BasicHourlyPayment" style="stroke:#A80036;stroke-width:0.63;stroke-dasharray:7.0,7.0;"/><polygon fill="none" points="746.55,194.2642,750.96,181.6642,755.37,194.2642,746.55,194.2642" style="stroke:#A80036;stroke-width:0.63;"/><!--MD5=[3b962c1388862e1072dc571831fc7bf1]
reverse link Payment.PaymentMethod to Payment.CashPayment--><path codeLine="293" d="M570.0429,189.6211 C580.2741,197.9938 591.381,207.9604 600.39,218.1916 C616.14,236.0836 630.3717,259.8409 638.7003,274.8727 " fill="none" id="Payment.PaymentMethod-backto-Payment.CashPayment" style="stroke:#A80036;stroke-width:0.63;stroke-dasharray:7.0,7.0;"/><polygon fill="none" points="567.1575,192.9664,560.0196,181.6831,572.6322,186.049,567.1575,192.9664" style="stroke:#A80036;stroke-width:0.63;"/><!--MD5=[763ad220871f7aa2764803326afbb233]
reverse link Payment.PaymentMethod to Payment.CreditCardPayment--><path codeLine="294" d="M541.17,194.3146 C542.3229,219.1177 543.9798,254.8702 544.8996,274.7089 " fill="none" id="Payment.PaymentMethod-backto-Payment.CreditCardPayment" style="stroke:#A80036;stroke-width:0.63;stroke-dasharray:7.0,7.0;"/><polygon fill="none" points="536.76,194.4532,540.5841,181.6642,545.5737,194.0437,536.76,194.4532" style="stroke:#A80036;stroke-width:0.63;"/><!--MD5=[f3271bbc00104e89a0a7558254d1c581]
reverse link Payment.ParkingTicket to Parking.ParkingSpot--><path codeLine="295" d="M878.0247,186.2821 C883.9215,190.0747 890.2782,193.8043 896.49,196.7716 C918.2187,207.1603 924.6258,207.973 948.15,213.1516 C965.5128,216.9757 972.342,209.4787 987.84,218.1916 C1011.1122,231.283 1028.3679,258.1147 1037.4084,274.8412 " fill="none" id="Payment.ParkingTicket-backto-Parking.ParkingSpot" style="stroke:#A80036;stroke-width:0.63;"/><polygon fill="#FFFFFF" points="871.101,181.6642,872.847,185.8583,877.39,185.8597,875.644,181.6656,871.101,181.6642" style="stroke:#A80036;stroke-width:0.63;"/><text fill="#000000" font-family="sans-serif" font-size="8.19" lengthAdjust="spacing" textLength="43.47" x="948.78" y="210.9436">parkingSpot</text><!--MD5=[a21285e30da113c0d18d478e4cdf64b1]
reverse link Payment.PaymentTicket to Parking.ParkingSpot--><path codeLine="296" d="M979.02,186.1561 C985.8051,190.7047 992.4579,195.9589 997.92,201.8116 C1018.3068,223.66 1032.4692,256.1176 1039.4874,274.7656 " fill="none" id="Payment.PaymentTicket-backto-Parking.ParkingSpot" style="stroke:#A80036;stroke-width:0.63;"/><polygon fill="#FFFFFF" points="971.9514,181.6831,973.7966,185.8345,978.3384,185.7279,976.4931,181.5766,971.9514,181.6831" style="stroke:#A80036;stroke-width:0.63;"/><text fill="#000000" font-family="sans-serif" font-size="8.19" lengthAdjust="spacing" textLength="43.47" x="1006.74" y="210.9436">parkingSpot</text><!--MD5=[30092822bf58b5b7a97a93845f83b955]
reverse link Users.CarOwner to Payment.ParkingTicket--><path codeLine="297" d="M907.6788,90.6103 C900.5976,95.2975 893.5227,100.7155 887.67,106.6816 C874.7865,119.8108 864.4734,138.4021 858.2616,151.2352 " fill="none" id="Users.CarOwner-backto-Payment.ParkingTicket" style="stroke:#A80036;stroke-width:0.63;"/><polygon fill="#FFFFFF" points="914.7285,86.1688,910.187,86.0512,908.3317,90.198,912.8731,90.3157,914.7285,86.1688" style="stroke:#A80036;stroke-width:0.63;"/><text fill="#000000" font-family="sans-serif" font-size="8.19" lengthAdjust="spacing" textLength="48.51" x="888.3" y="115.8136">parkingTicket</text><!--MD5=[3548c66ff3e83f1f29c2e26c6883de70]
reverse link Users.CarOwner to Payment.PaymentTicket--><path codeLine="298" d="M942.48,95.014 C942.48,112.591 942.48,136.2916 942.48,151.336 " fill="none" id="Users.CarOwner-backto-Payment.PaymentTicket" style="stroke:#A80036;stroke-width:0.63;"/><polygon fill="#FFFFFF" points="942.48,86.698,939.96,90.478,942.48,94.258,945,90.478,942.48,86.698" style="stroke:#A80036;stroke-width:0.63;"/><text fill="#000000" font-family="sans-serif" font-size="8.19" lengthAdjust="spacing" textLength="53.55" x="943.11" y="115.8136">paymentTicket</text><!--MD5=[74f71f26136c545d4b3843e236911258]
reverse link Users.CarOwner to Vehicles.Vehicle--><path codeLine="299" d="M964.0323,91.6939 C969.4062,95.6188 975.4038,99.2665 981.54,101.6416 C1014.3126,114.3361 1549.233,155.305 1666.8918,164.188 " fill="none" id="Users.CarOwner-backto-Vehicles.Vehicle" style="stroke:#A80036;stroke-width:0.63;"/><polygon fill="#FFFFFF" points="957.5874,86.6413,959.0049,90.9575,963.5343,91.3091,962.1168,86.9929,957.5874,86.6413" style="stroke:#A80036;stroke-width:0.63;"/><text fill="#000000" font-family="sans-serif" font-size="8.19" lengthAdjust="spacing" textLength="24.57" x="1099.98" y="115.8136">vehicle</text><!--MD5=[72a0389b5a463a85b353e5d5de9191a2]
reverse link Vehicles.Vehicle to Vehicles.VehicleType--><path codeLine="300" d="M1691.1846,189.9487 C1692.8478,214.7518 1695.456,253.6732 1696.8672,274.7089 " fill="none" id="Vehicles.Vehicle-backto-Vehicles.VehicleType" style="stroke:#A80036;stroke-width:0.63;"/><polygon fill="#FFFFFF" points="1690.6302,181.6642,1688.3692,185.6047,1691.1369,189.2072,1693.3979,185.2668,1690.6302,181.6642" style="stroke:#A80036;stroke-width:0.63;"/><text fill="#000000" font-family="sans-serif" font-size="8.19" lengthAdjust="spacing" textLength="42.21" x="1692.81" y="210.9436">vehicleType</text><!--MD5=[7d4e6c938b6ecdc2de59780ffeeefcb8]
link Exceptions.InvalidParkingTicketException to Exceptions.InvalidPaymentTicketException--><!--MD5=[4200be83a8d5d31184fe5368909d9b87]
link Exceptions.InvalidParkingTicketException to Exceptions.ParkingLotIsFullException--><text fill="#888888" font-family="sans-serif" font-size="6.3" lengthAdjust="spacing" textLength="0" x="1745.1" y="585.0916"/><text fill="#888888" font-family="sans-serif" font-size="6.3" lengthAdjust="spacing" textLength="0" x="1745.1" y="593.2004"/><text fill="#888888" font-family="sans-serif" font-size="6.3" lengthAdjust="spacing" textLength="241.92" x="1503.18" y="601.3092">PlantUML diagram generated by SketchIt! (https://bitbucket.org/pmesmeur/sketch.it)</text><text fill="#888888" font-family="sans-serif" font-size="6.3" lengthAdjust="spacing" textLength="240.66" x="1504.44" y="609.4179">For more information about this tool, please contact philippe.mesmeur@gmail.com</text><!--MD5=[0fb4d9b8b851597d96de4895fd95bfce]
@startuml

title __PARKING LOT OOP's Class Diagram__\n


    namespace DisplayBoard {
      class DisplayBoard.ConsoleDisplayBoard {
      }
    }

  


    namespace DisplayBoard {
      interface DisplayBoard.IDisplayBoard {
      }
    }

  


    namespace Exceptions {
      class Exceptions.InvalidParkingTicketException {
      }
    }

  


    namespace Exceptions {
      class Exceptions.InvalidPaymentTicketException {
      }
    }

  


    namespace Exceptions {
      class Exceptions.ParkingLotIsFullException {
      }
    }

  


    class Main {
    }

  

    namespace Parking {
      class Parking.ArrayListParkingLevelsCollection {
      }
    }

  


    namespace Parking {
      class Parking.CParkingLevel {
      }
    }

  


    namespace Parking {
      namespace Factories {
        class Parking.Factories.ParkingLevelsCollectionFactory {
        }
     }
    }

  


    namespace Parking {
      namespace Factories {
        class Parking.Factories.ParkingLotFactory {
        }
     }
    }

  


    namespace Parking {
      interface Parking.ParkingLevel {
      }
    }

  


    namespace Parking {
      interface Parking.ParkingLevelsCollection {
      }
    }

  


    namespace Parking {
      class Parking.ParkingLot {
      }
    }

  


    namespace Parking {
      interface Parking.ParkingLotFacade {
      }
    }

  


    namespace Parking {
      class Parking.ParkingSpot {
      }
    }

  


    namespace Parking {
      enum ParkingSpotType {
      }
    }

  


    namespace Parking {
      namespace Policies {
        class Parking.Policies.BasicLevelAssignmentPolicy {
        }
     }
    }

  


    namespace Parking {
      namespace Policies {
        class Parking.Policies.BasicParkingAssignmentPolicy {
        }
     }
    }

  


    namespace Parking {
      namespace Policies {
        interface Parking.Policies.LevelAssignmentPolicy {
        }
     }
    }

  


    namespace Parking {
      namespace Policies {
        interface Parking.Policies.ParkingAssignmentPolicy {
        }
     }
    }

  


    namespace Parking {
      interface Parking.VehicleToParkingSpotTypeMapper {
      }
    }

  


    namespace Payment {
      class Payment.BasicHourlyPayment {
      }
    }

  


    namespace Payment {
      class Payment.CashPayment {
      }
    }

  


    namespace Payment {
      class Payment.CreditCardPayment {
      }
    }

  


    namespace Payment {
      class Payment.ParkingTicket {
      }
    }

  


    namespace Payment {
      interface Payment.PaymentCalculation {
      }
    }

  


    namespace Payment {
      class Payment.PaymentException {
      }
    }

  


    namespace Payment {
      interface Payment.PaymentMethod {
      }
    }

  


    namespace Payment {
      class Payment.PaymentTicket {
      }
    }

  


    namespace Users {
      class Users.Admin {
      }
    }

  


    namespace Users {
      class Users.CarOwner {
      }
    }

  


    namespace Vehicles {
      class Vehicles.Vehicle {
      }
    }

  


    namespace Vehicles {
      enum VehicleType {
      }
    }

  

  DisplayBoard.ConsoleDisplayBoard .up.|> DisplayBoard.IDisplayBoard
  Parking.ArrayListParkingLevelsCollection .up.|> Parking.ParkingLevelsCollection
  Parking.ArrayListParkingLevelsCollection -up-|> java.util.ArrayList
  Parking.CParkingLevel .up.|> Parking.ParkingLevel
  Parking.CParkingLevel o- - Parking.Policies.ParkingAssignmentPolicy : parkingAssignmentPolicy
  Parking.CParkingLevel o- - Parking.VehicleToParkingSpotTypeMapper : possibleSpots
  Parking.ParkingLot .up.|> Parking.ParkingLotFacade
  Parking.ParkingLot o- - Parking.ParkingLevelsCollection : fullLevels
  Parking.ParkingLot o- - Parking.Policies.LevelAssignmentPolicy : levelAssignmentPolicy
  Parking.ParkingLot o- - Parking.ParkingLevelsCollection : nonFullLevels
  Parking.ParkingLot o- - Parking.Policies.ParkingAssignmentPolicy : parkingAssignmentPolicy
  Parking.ParkingLot o- - Payment.PaymentCalculation : paymentCalculation
  Parking.ParkingSpot o- - Parking.ParkingSpotType : parkingSpotType
  Parking.Policies.BasicLevelAssignmentPolicy .up.|> Parking.Policies.LevelAssignmentPolicy
  Parking.Policies.BasicParkingAssignmentPolicy .up.|> Parking.Policies.ParkingAssignmentPolicy
  Payment.BasicHourlyPayment .up.|> Payment.PaymentCalculation
  Payment.CashPayment .up.|> Payment.PaymentMethod
  Payment.CreditCardPayment .up.|> Payment.PaymentMethod
  Payment.ParkingTicket o- - Parking.ParkingSpot : parkingSpot
  Payment.PaymentTicket o- - Parking.ParkingSpot : parkingSpot
  Users.CarOwner o- - Payment.ParkingTicket : parkingTicket
  Users.CarOwner o- - Payment.PaymentTicket : paymentTicket
  Users.CarOwner o- - Vehicles.Vehicle : vehicle
  Vehicles.Vehicle o- - Vehicles.VehicleType : vehicleType


right footer


PlantUML diagram generated by SketchIt! (https://bitbucket.org/pmesmeur/sketch.it)
For more information about this tool, please contact philippe.mesmeur@gmail.com
endfooter

@enduml

PlantUML version 1.2021.00(Sun Jan 10 12:25:05 IST 2021)
(GPL source distribution)
Java Runtime: OpenJDK Runtime Environment
JVM: OpenJDK 64-Bit Server VM
Default Encoding: Cp1255
Language: he
Country: IL
--></g></svg>